<?xml version="1.0" encoding="utf-8"?>
<!-- Generator: Adobe Illustrator 23.0.6, SVG Export Plug-In . SVG Version: 6.00 Build 0)  -->
<svg version="1.1" xmlns="http://www.w3.org/2000/svg" xmlns:xlink="http://www.w3.org/1999/xlink" x="0px" y="0px"
	 viewBox="0 0 982 260" style="enable-background:new 0 0 982 260;" xml:space="preserve">
<style type="text/css">
	.st0{display:none;}
	.st1{display:inline;fill:#EAEAEA;stroke:#000000;stroke-width:5;stroke-miterlimit:10;}
	.st2{display:inline;fill:#C7C8C9;}
	.st3{display:inline;fill:none;stroke:#000000;stroke-width:6;stroke-miterlimit:10;}
	.st4{display:inline;fill:#C6C6C5;stroke:#000000;stroke-width:5;stroke-miterlimit:10;}
	.st5{display:inline;fill:#1B7FAD;stroke:#000000;stroke-width:4;stroke-miterlimit:10;}
	.st6{display:inline;fill:none;stroke:#A61E2F;stroke-width:4;stroke-linecap:round;stroke-miterlimit:10;}
	.st7{display:inline;}
	.st8{font-family:'Kollektif';}
	.st9{font-size:115.758px;}
	.st10{fill:#1B7FAD;}
	.st11{fill:#FDFEFE;stroke:#000000;stroke-width:6;stroke-linejoin:round;stroke-miterlimit:10;}
	.st12{fill:#1B7FAD;stroke:#000000;stroke-width:6;stroke-miterlimit:10;}
	.st13{fill:#EAEAEA;stroke:#000000;stroke-width:6;stroke-miterlimit:10;}
	.st14{font-size:133.7699px;}
</style>
<g id="Layer_1" class="st0">
	<path class="st1" d="M141.2,233.8H28c-6.6,0-12-5.4-12-12V108.7c0-6.6,5.4-12,12-12h113.2c6.6,0,12,5.4,12,12v113.2
		C153.2,228.4,147.8,233.8,141.2,233.8z"/>
	<path class="st2" d="M147.2,233.8h-5.1c-3.3,0-5.9-2.7-5.9-5.9V102.6c0-3.3,2.7-5.9,5.9-5.9h5.1c3.3,0,5.9,2.7,5.9,5.9v125.3
		C153.2,231.2,150.5,233.8,147.2,233.8z"/>
	<path class="st3" d="M141.2,233.8H28c-6.6,0-12-5.4-12-12V108.7c0-6.6,5.4-12,12-12h113.2c6.6,0,12,5.4,12,12v113.2
		C153.2,228.4,147.8,233.8,141.2,233.8z"/>
	<path class="st4" d="M29.4,96.7V56.7c0-25.7,20.9-46.5,46.5-46.5h17.4c25.7,0,46.5,20.9,46.5,46.5v39.9h-10.3V56.7
		c0-20-16.3-36.2-36.2-36.2H75.9c-20,0-36.2,16.3-36.2,36.2v39.9H29.4z"/>
	<path class="st5" d="M88.8,193.8v-70.5c0-2.3-2-4.1-4.5-4.1h-4.6c-2.5,0-4.5,1.9-4.5,4.1v70.5l0,0c-5.6,2.4-9.5,7.5-9.5,13.5
		c0,8.2,7.3,14.9,16.4,14.9s16.4-6.7,16.4-14.9c0-6-3.9-11.1-9.4-13.5L88.8,193.8z"/>
	<line class="st6" x1="97.6" y1="172.8" x2="107.4" y2="172.8"/>
	<line class="st6" x1="97.6" y1="161.2" x2="107.4" y2="161.2"/>
	<line class="st6" x1="97.6" y1="149.7" x2="107.4" y2="149.7"/>
	<line class="st6" x1="97.6" y1="138.1" x2="107.4" y2="138.1"/>
	<line class="st6" x1="97.6" y1="126.6" x2="107.4" y2="126.6"/>
	<line class="st6" x1="97.6" y1="184.3" x2="107.4" y2="184.3"/>
	<text transform="matrix(1 0 0 1 171.3188 235.0371)" class="st7"><tspan x="0" y="0" class="st8 st9">Thermo</tspan><tspan x="374.8" y="0" class="st10 st8 st9">Security</tspan></text>
</g>
<g id="Layer_2">
	<path class="st11" d="M40.1,33.6h16.5c2.4,0,4.4,2,4.4,4.4v4.6c0,2.1,2.5,3.2,4,1.7l30.8-29c1.7-1.6,4.3-1.6,6,0l75.4,70.9
		c0.9,0.8,1.4,2,1.4,3.2v153.2c0,2.4-2,4.4-4.4,4.4H23.5c-2.4,0-4.4-2-4.4-4.4V89.4c0-1.2,0.5-2.4,1.4-3.2l13.9-13
		c0.9-0.8,1.4-2,1.4-3.2V38C35.7,35.6,37.7,33.6,40.1,33.6z"/>
	<rect x="75.7" y="126.8" class="st12" width="46.3" height="59.2"/>
	<polyline class="st13" points="122,131.7 139.5,131.7 139.5,113.3 	"/>
	<polyline class="st13" points="122,146.4 150.1,146.4 150.1,130 160.5,130 	"/>
	<polyline class="st13" points="122,162.5 155.3,162.5 155.3,176.6 164.8,176.6 	"/>
	<polyline class="st13" points="122,181.2 133,181.2 133,198.2 150.4,198.2 150.4,210 	"/>
	<polyline class="st13" points="75.7,131 58.7,131 58.7,104.5 	"/>
	<polyline class="st13" points="75.7,145.2 48.3,145.2 48.3,137.5 31.7,137.5 	"/>
	<polyline class="st13" points="75.7,162.5 49.3,162.5 49.3,181.2 35.7,181.2 35.7,197.9 	"/>
	<polyline class="st13" points="75.7,183 72.1,183 72.1,206 59.4,206 59.4,218.3 	"/>
	<path d="M58.7,111.6L58.7,111.6c-3.2,0-5.8-2.6-5.8-5.8v0c0-3.2,2.6-5.8,5.8-5.8h0c3.2,0,5.8,2.6,5.8,5.8v0
		C64.4,109,61.8,111.6,58.7,111.6z"/>
	<path d="M33.9,143.3L33.9,143.3c-3.2,0-5.8-2.6-5.8-5.8v0c0-3.2,2.6-5.8,5.8-5.8h0c3.2,0,5.8,2.6,5.8,5.8v0
		C39.7,140.7,37.1,143.3,33.9,143.3z"/>
	<path d="M35.7,203.7L35.7,203.7c-3.2,0-5.8-2.6-5.8-5.8v0c0-3.2,2.6-5.8,5.8-5.8h0c3.2,0,5.8,2.6,5.8,5.8v0
		C41.5,201.1,38.9,203.7,35.7,203.7z"/>
	<path d="M59.4,224.1L59.4,224.1c-3.2,0-5.8-2.6-5.8-5.8v0c0-3.2,2.6-5.8,5.8-5.8h0c3.2,0,5.8,2.6,5.8,5.8v0
		C65.2,221.5,62.6,224.1,59.4,224.1z"/>
	<path d="M150.4,215.8L150.4,215.8c-3.2,0-5.8-2.6-5.8-5.8v0c0-3.2,2.6-5.8,5.8-5.8h0c3.2,0,5.8,2.6,5.8,5.8v0
		C156.2,213.2,153.6,215.8,150.4,215.8z"/>
	<path d="M165.7,182.3L165.7,182.3c-3.2,0-5.8-2.6-5.8-5.8l0,0c0-3.2,2.6-5.8,5.8-5.8h0c3.2,0,5.8,2.6,5.8,5.8l0,0
		C171.5,179.7,168.9,182.3,165.7,182.3z"/>
	<path d="M163,135.8L163,135.8c-3.2,0-5.8-2.6-5.8-5.8v0c0-3.2,2.6-5.8,5.8-5.8h0c3.2,0,5.8,2.6,5.8,5.8v0
		C168.7,133.2,166.1,135.8,163,135.8z"/>
	<path d="M139.5,116.6L139.5,116.6c-3.2,0-5.8-2.6-5.8-5.8v0c0-3.2,2.6-5.8,5.8-5.8h0c3.2,0,5.8,2.6,5.8,5.8v0
		C145.3,114,142.7,116.6,139.5,116.6z"/>
	<text transform="matrix(1 0 0 1 200.0185 247.0124)"><tspan x="0" y="0" class="st8 st14">House</tspan><tspan x="367.3" y="0" class="st10 st8 st14">Com</tspan></text>
</g>
</svg>
