<?xml version="1.0" encoding="utf-8"?>
<!-- Generator: Adobe Illustrator 23.0.6, SVG Export Plug-In . SVG Version: 6.00 Build 0)  -->
<svg version="1.1" id="Layer_1" xmlns="http://www.w3.org/2000/svg" xmlns:xlink="http://www.w3.org/1999/xlink" x="0px" y="0px"
	 viewBox="0 0 982 260" style="enable-background:new 0 0 982 260;" xml:space="preserve">
<style type="text/css">
	.st0{fill:#EAEAEA;stroke:#000000;stroke-width:5;stroke-miterlimit:10;}
	.st1{fill:#C7C8C9;}
	.st2{fill:none;stroke:#000000;stroke-width:6;stroke-miterlimit:10;}
	.st3{fill:#C6C6C5;stroke:#000000;stroke-width:5;stroke-miterlimit:10;}
	.st4{fill:#1B7FAD;stroke:#000000;stroke-width:4;stroke-miterlimit:10;}
	.st5{fill:none;stroke:#A61E2F;stroke-width:4;stroke-linecap:round;stroke-miterlimit:10;}
	.st6{font-family:'Kollektif';}
	.st7{font-size:115.758px;}
	.st8{fill:#1B7FAD;}
</style>
<path class="st0" d="M141.2,233.8H28c-6.6,0-12-5.4-12-12V108.7c0-6.6,5.4-12,12-12h113.2c6.6,0,12,5.4,12,12v113.2
	C153.2,228.4,147.8,233.8,141.2,233.8z"/>
<path class="st1" d="M147.2,233.8h-5.1c-3.3,0-5.9-2.7-5.9-5.9V102.6c0-3.3,2.7-5.9,5.9-5.9h5.1c3.3,0,5.9,2.7,5.9,5.9v125.3
	C153.2,231.2,150.5,233.8,147.2,233.8z"/>
<path class="st2" d="M141.2,233.8H28c-6.6,0-12-5.4-12-12V108.7c0-6.6,5.4-12,12-12h113.2c6.6,0,12,5.4,12,12v113.2
	C153.2,228.4,147.8,233.8,141.2,233.8z"/>
<path class="st3" d="M29.4,96.7V56.7c0-25.7,20.9-46.5,46.5-46.5h17.4c25.7,0,46.5,20.9,46.5,46.5v39.9h-10.3V56.7
	c0-20-16.3-36.2-36.2-36.2H75.9c-20,0-36.2,16.3-36.2,36.2v39.9H29.4z"/>
<path class="st4" d="M88.8,193.8v-70.5c0-2.3-2-4.1-4.5-4.1h-4.6c-2.5,0-4.5,1.9-4.5,4.1v70.5l0,0c-5.6,2.4-9.5,7.5-9.5,13.5
	c0,8.2,7.3,14.9,16.4,14.9s16.4-6.7,16.4-14.9c0-6-3.9-11.1-9.4-13.5L88.8,193.8z"/>
<line class="st5" x1="97.6" y1="172.8" x2="107.4" y2="172.8"/>
<line class="st5" x1="97.6" y1="161.2" x2="107.4" y2="161.2"/>
<line class="st5" x1="97.6" y1="149.7" x2="107.4" y2="149.7"/>
<line class="st5" x1="97.6" y1="138.1" x2="107.4" y2="138.1"/>
<line class="st5" x1="97.6" y1="126.6" x2="107.4" y2="126.6"/>
<line class="st5" x1="97.6" y1="184.3" x2="107.4" y2="184.3"/>
<text transform="matrix(1 0 0 1 171.3188 235.0371)"><tspan x="0" y="0" class="st6 st7">Thermo</tspan><tspan x="374.8" y="0" class="st8 st6 st7">Security</tspan></text>
</svg>
