<?xml version="1.0" encoding="utf-8"?>
<!-- Generator: Adobe Illustrator 23.0.6, SVG Export Plug-In . SVG Version: 6.00 Build 0)  -->
<svg version="1.1" xmlns="http://www.w3.org/2000/svg" xmlns:xlink="http://www.w3.org/1999/xlink" x="0px" y="0px"
	 viewBox="0 0 1000 1000" style="enable-background:new 0 0 1000 1000;" xml:space="preserve">
<style type="text/css">
	.st0{display:none;}
	.st1{display:inline;fill:none;}
	.st2{display:inline;}
	.st3{font-family:'Kollektif';}
	.st4{font-size:99px;}
	.st5{display:inline;fill:#EAEAEA;stroke:#000000;stroke-width:5;stroke-miterlimit:10;}
	.st6{display:inline;fill:#C7C8C9;}
	.st7{display:inline;fill:none;stroke:#000000;stroke-width:6;stroke-miterlimit:10;}
	.st8{display:inline;fill:#C6C6C5;stroke:#000000;stroke-width:5;stroke-miterlimit:10;}
	.st9{display:inline;fill:#1B7FAD;stroke:#000000;stroke-width:4;stroke-miterlimit:10;}
	.st10{display:inline;fill:none;stroke:#A61E2F;stroke-width:4;stroke-linecap:round;stroke-miterlimit:10;}
	.st11{display:inline;fill:#1B7FAD;}
	.st12{display:inline;fill:none;stroke:#B7B7B7;stroke-width:4;stroke-miterlimit:10;}
	.st13{display:inline;fill:#B7B7B7;}
	.st14{font-size:50px;}
	.st15{display:inline;fill:#FDFEFE;stroke:#000000;stroke-width:6;stroke-linejoin:round;stroke-miterlimit:10;}
	.st16{display:inline;fill:#EAEAEA;stroke:#000000;stroke-width:4;stroke-miterlimit:10;}
	.st17{fill:#B7B7B7;}
	.st18{display:inline;fill:none;stroke:#B7B7B7;stroke-miterlimit:10;}
	.st19{fill:#EAEAEA;stroke:#000000;stroke-width:5;stroke-miterlimit:10;}
	.st20{fill:#C7C8C9;}
	.st21{fill:none;stroke:#FFFFFF;stroke-width:4;stroke-miterlimit:10;}
	.st22{fill:#C6C6C5;stroke:#FDFEFE;stroke-width:3;stroke-miterlimit:10;}
	.st23{fill:#1B7FAD;stroke:#000000;stroke-width:4;stroke-miterlimit:10;}
	.st24{fill:none;stroke:#A61E2F;stroke-width:4;stroke-linecap:round;stroke-miterlimit:10;}
	.st25{fill:#FCFAFC;}
	.st26{font-size:96.5368px;}
	.st27{fill:#1B7FAD;}
	.st28{display:inline;fill:#F1F1F1;stroke:#000000;stroke-width:5;stroke-miterlimit:10;}
	.st29{display:inline;fill:#D1D1D1;}
	.st30{display:inline;fill:none;stroke:#FFFFFF;stroke-width:5;stroke-miterlimit:10;}
	.st31{display:inline;fill:#CFCFCF;stroke:#FEFEFE;stroke-width:4;stroke-miterlimit:10;}
	.st32{display:inline;fill:#717171;stroke:#000000;stroke-width:4;stroke-miterlimit:10;}
	.st33{display:inline;fill:none;stroke:#131313;stroke-width:4;stroke-linecap:round;stroke-miterlimit:10;}
	.st34{fill:#FDFDFD;}
	.st35{font-size:96.5367px;}
	.st36{fill:#717171;}
	.st37{fill:#FDFEFE;stroke:#FFFFFF;stroke-width:6;stroke-linejoin:round;stroke-miterlimit:10;}
	.st38{fill:#1B7FAD;stroke:#000000;stroke-width:6;stroke-miterlimit:10;}
	.st39{fill:#EAEAEA;stroke:#000000;stroke-width:6;stroke-miterlimit:10;}
	.st40{fill:#FFFFFF;}
	.st41{font-size:131.9817px;}
	.st42{display:inline;fill:#FEFEFE;stroke:#FFFFFF;stroke-width:6;stroke-linejoin:round;stroke-miterlimit:10;}
	.st43{display:inline;fill:#717171;stroke:#000000;stroke-width:6;stroke-miterlimit:10;}
	.st44{display:inline;fill:#F1F1F1;stroke:#000000;stroke-width:6;stroke-miterlimit:10;}
	.st45{font-size:132.0099px;}
	.st46{fill:#FDFEFE;stroke:#000000;stroke-width:6;stroke-linejoin:round;stroke-miterlimit:10;}
	.st47{font-size:151.9208px;}
	.st48{display:inline;fill:#FEFEFE;stroke:#000000;stroke-width:6;stroke-linejoin:round;stroke-miterlimit:10;}
	.st49{fill:none;stroke:#000000;stroke-width:6;stroke-miterlimit:10;}
	.st50{fill:#C6C6C5;stroke:#000000;stroke-width:5;stroke-miterlimit:10;}
	.st51{font-size:120.1481px;}
	.st52{display:inline;fill:#CFCFCF;stroke:#000000;stroke-width:5;stroke-miterlimit:10;}
	.st53{fill:#EAEAEA;stroke:#000000;stroke-width:9;stroke-miterlimit:10;}
	.st54{fill:none;stroke:#000000;stroke-width:9;stroke-miterlimit:10;}
	.st55{fill:#C6C6C5;stroke:#000000;stroke-width:10;stroke-miterlimit:10;}
	.st56{fill:none;stroke:#A71E30;stroke-width:6;stroke-linecap:round;stroke-miterlimit:10;}
	.st57{display:inline;fill:#F1F1F1;stroke:#000000;stroke-width:9;stroke-miterlimit:10;}
	.st58{display:inline;fill:none;stroke:#000000;stroke-width:9;stroke-miterlimit:10;}
	.st59{display:inline;fill:#CFCFCF;stroke:#000000;stroke-width:10;stroke-miterlimit:10;}
	.st60{display:inline;fill:none;stroke:#141414;stroke-width:6;stroke-linecap:round;stroke-miterlimit:10;}
	.st61{display:inline;fill:none;stroke:#000000;stroke-width:10;stroke-linejoin:round;stroke-miterlimit:10;}
	.st62{display:inline;fill:#1B7FAD;stroke:#000000;stroke-width:6;stroke-miterlimit:10;}
	.st63{display:inline;fill:#EAEAEA;stroke:#000000;stroke-width:9;stroke-miterlimit:10;}
	.st64{display:inline;fill:#FEFEFE;stroke:#000000;stroke-width:10;stroke-linejoin:round;stroke-miterlimit:10;}
	.st65{display:inline;fill:#187FAD;}
	.st66{font-size:55px;}
	.st67{display:inline;fill:#A71E30;}
</style>
<g id="Font_x5F_Kollektif" class="st0">
	<rect x="176" y="32.8" class="st1" width="648" height="934.5"/>
	<text transform="matrix(1 0 0 1 176.0001 105.0354)" class="st2"><tspan x="0" y="0" class="st3 st4">AaBbCcDdEe</tspan><tspan x="0" y="118.8" class="st3 st4">FfGgHhIiJjKk</tspan><tspan x="0" y="237.6" class="st3 st4">LlMmNnOoPp</tspan><tspan x="0" y="356.4" class="st3 st4">QqRrSsTtUu</tspan><tspan x="0" y="475.2" class="st3 st4">VvWwXxYyZz</tspan><tspan x="0" y="594" class="st3 st4">1234567890!?</tspan><tspan x="0" y="712.8" class="st3 st4">@$#%&amp;*().,-_+</tspan><tspan x="0" y="831.6" class="st3 st4">/\|&lt;&gt;=’”^]}[{`~</tspan></text>
</g>
<g id="ThermoIdentify" class="st0">
	<path class="st5" d="M219.4,545.3h-87.1c-6.6,0-12-5.4-12-12v-87.1c0-6.6,5.4-12,12-12h87.1c6.6,0,12,5.4,12,12v87.1
		C231.4,539.9,226,545.3,219.4,545.3z"/>
	<path class="st6" d="M225.5,545.3h-1.9c-3.3,0-5.9-2.7-5.9-5.9v-99.2c0-3.3,2.7-5.9,5.9-5.9h1.9c3.3,0,5.9,2.7,5.9,5.9v99.2
		C231.4,542.7,228.7,545.3,225.5,545.3z"/>
	<path class="st7" d="M219.4,545.3h-87.1c-6.6,0-12-5.4-12-12v-87.1c0-6.6,5.4-12,12-12h87.1c6.6,0,12,5.4,12,12v87.1
		C231.4,539.9,226,545.3,219.4,545.3z"/>
	<path class="st8" d="M131.1,434.2v-32.3c0-20.8,16.9-37.7,37.7-37.7h14.1c20.8,0,37.7,16.9,37.7,37.7v32.3h-8.3v-32.3
		c0-16.2-13.2-29.4-29.4-29.4h-14.1c-16.2,0-29.4,13.2-29.4,29.4v32.3H131.1z"/>
	<path class="st9" d="M179.2,512.9v-57.1c0-1.8-1.7-3.3-3.7-3.3h-3.7c-2,0-3.7,1.5-3.7,3.3v57.1l0,0c-4.5,1.9-7.7,6.1-7.7,10.9
		c0,6.7,5.9,12.1,13.2,12.1s13.2-5.4,13.2-12.1c0-4.8-3.1-9-7.6-10.9L179.2,512.9z"/>
	<line class="st10" x1="186.4" y1="495.9" x2="194.4" y2="495.9"/>
	<line class="st10" x1="186.4" y1="486.5" x2="194.4" y2="486.5"/>
	<line class="st10" x1="186.4" y1="477.2" x2="194.4" y2="477.2"/>
	<line class="st10" x1="186.4" y1="467.8" x2="194.4" y2="467.8"/>
	<line class="st10" x1="186.4" y1="458.5" x2="194.4" y2="458.5"/>
	<line class="st10" x1="186.4" y1="505.2" x2="194.4" y2="505.2"/>
	<path class="st2" d="M264.6,490.7h-18v-8.8h45.9v8.8h-18.1v57.7h-9.8V490.7z"/>
	<path class="st2" d="M309.4,548.4h-9.1V480h9.1l0,27.7c1.7-1.9,3.4-3.2,5.3-4c1.8-0.8,4-1.2,6.4-1.2c3.1,0,5.9,0.6,8.4,1.8
		s4.6,2.9,6.3,5c1.7,2.1,3.1,4.6,4,7.5c0.9,2.9,1.4,5.9,1.4,9.2v22.4H332V526c0-2.1-0.3-4.1-0.9-6c-0.6-1.9-1.4-3.5-2.4-4.9
		c-1-1.4-2.2-2.5-3.6-3.2c-1.3-0.8-2.8-1.2-4.4-1.2c-1.3,0-2.6,0.3-3.9,0.8c-1.3,0.5-2.5,1.4-3.6,2.6c-1.1,1.2-2,2.8-2.7,4.7
		c-0.7,1.9-1.1,4.3-1.1,7V548.4z"/>
	<path class="st2" d="M372.4,549.5c-3.3,0-6.3-0.6-9.1-1.8c-2.8-1.2-5.3-2.9-7.5-5c-2.1-2.1-3.8-4.6-5-7.5c-1.2-2.9-1.8-5.9-1.8-9.2
		c0-3.2,0.6-6.3,1.7-9.2c1.2-2.9,2.7-5.4,4.7-7.5c2-2.1,4.3-3.8,6.9-5c2.6-1.2,5.4-1.8,8.4-1.8c3.1,0,5.9,0.5,8.5,1.6
		c2.6,1.1,4.8,2.7,6.8,5c1.9,2.3,3.4,5.1,4.5,8.6c1.1,3.5,1.6,7.6,1.6,12.4h-33.4c0.4,1.6,1.1,3.1,2.1,4.5s2,2.6,3.3,3.7
		c1.3,1,2.7,1.8,4.3,2.4s3.3,0.8,5,0.8c2.4,0,4.6-0.4,6.6-1.3c2-0.9,3.8-2,5.2-3.5l5.6,5.6c-2.2,2.2-4.9,3.9-8,5.3
		S376.1,549.5,372.4,549.5z M370.7,510.7c-1.4,0-2.8,0.3-4.1,0.8c-1.3,0.6-2.5,1.3-3.6,2.3c-1.1,1-2,2.2-2.8,3.6
		c-0.8,1.4-1.4,2.9-1.7,4.5h23.7c-0.1-1.5-0.5-2.9-1-4.3c-0.6-1.4-1.3-2.6-2.3-3.6c-1-1-2.2-1.8-3.5-2.4
		C374,511,372.5,510.7,370.7,510.7z"/>
	<path class="st2" d="M426.6,511.3c-0.4-0.1-0.8-0.2-1.3-0.4c-0.5-0.1-1-0.2-1.6-0.2c-1.8,0-3.5,0.3-5.1,0.9c-1.6,0.6-2.9,1.4-4,2.4
		c-1.1,1-2,2.2-2.7,3.5c-0.7,1.3-1,2.8-1,4.3l-0.1,26.6h-9.1v-44.9h7.2l1.9,5c1.3-1.8,2.9-3.3,4.9-4.4c2-1.1,4.6-1.6,7.6-1.6
		c2,0,4.3,0.3,6.8,0.8l-2.3,8.5C427.5,511.6,427,511.5,426.6,511.3z"/>
	<path class="st2" d="M445.3,548.4h-9.1v-44.9h7.2l1.9,3.8c1.1-1.3,2.5-2.5,4-3.4c1.6-1,3.5-1.5,5.7-1.5c0.9,0,1.9,0.1,3,0.3
		c1.1,0.2,2.2,0.6,3.4,1.1c1.2,0.5,2.3,1.3,3.3,2.2c1.1,0.9,2,2.1,2.7,3.5c1.1-1.9,2.7-3.6,4.8-5s4.5-2.1,6.9-2.1
		c1.6,0,3.3,0.3,5.2,0.8c1.8,0.5,3.5,1.4,5.1,2.8c1.6,1.4,2.8,3.3,3.8,5.7c1,2.4,1.5,5.6,1.5,9.5v27.2h-8.5v-27.3
		c0-3.9-0.8-6.6-2.4-8.1c-1.6-1.5-3.7-2.3-6.3-2.3c-2,0-3.8,0.8-5.3,2.5c-1.5,1.7-2.3,4.3-2.3,8v27.2h-8.5v-27.3
		c0-3.9-0.8-6.6-2.4-8.1c-1.6-1.5-3.7-2.3-6.3-2.3c-1.9,0-3.5,0.7-4.9,2.2c-1.4,1.4-2.2,3.7-2.5,6.8V548.4z"/>
	<path class="st2" d="M525.1,548.5c-3.1,0-6-0.6-8.8-1.8c-2.7-1.2-5.1-2.9-7.1-5c-2-2.1-3.6-4.6-4.8-7.5c-1.2-2.9-1.8-5.9-1.8-9.2
		c0-3.2,0.6-6.3,1.8-9.2c1.2-2.9,2.8-5.4,4.8-7.5c2-2.1,4.4-3.8,7.1-5c2.7-1.2,5.6-1.8,8.8-1.8c3.1,0,6,0.6,8.7,1.8
		c2.8,1.2,5.1,2.9,7.2,5c2,2.1,3.6,4.6,4.8,7.5c1.2,2.9,1.8,5.9,1.8,9.2c0,3.3-0.6,6.3-1.8,9.2c-1.2,2.9-2.8,5.4-4.8,7.5
		c-2,2.1-4.4,3.8-7.2,5C531.1,547.9,528.2,548.5,525.1,548.5z M525.1,509.5c-1.8,0-3.5,0.4-5.2,1.2c-1.6,0.8-3.1,1.9-4.3,3.3
		s-2.2,3-2.9,4.9c-0.7,1.9-1,3.9-1,6c0,2.1,0.3,4.1,1,6c0.7,1.9,1.6,3.5,2.9,4.9c1.2,1.4,2.7,2.5,4.3,3.3c1.6,0.8,3.4,1.2,5.2,1.2
		s3.5-0.4,5.2-1.2c1.6-0.8,3-1.9,4.2-3.3c1.2-1.4,2.1-3.1,2.8-4.9c0.7-1.9,1-3.9,1-6c0-2.1-0.3-4.1-1-6c-0.7-1.9-1.6-3.5-2.8-4.9
		s-2.6-2.5-4.2-3.3C528.6,509.9,526.9,509.5,525.1,509.5z"/>
	<path class="st11" d="M599.3,529.7c0,2.8-0.6,5.4-1.7,7.8c-1.1,2.4-2.8,4.5-5,6.3c-4.3,3.6-9.8,5.4-16.6,5.4
		c-5.3,0-10-1.1-14.3-3.2c-4.3-2.1-7.4-5-9.4-8.6l8.3-4.3c1.3,2.3,3.2,4,6,5.2c2.7,1.2,5.8,1.8,9.3,1.8c9.1,0,13.6-3.5,13.6-10.4
		c0-1.3-0.2-2.4-0.7-3.4s-1.2-1.8-2.1-2.6c-2.3-1.9-6.3-3.6-12.1-5.1c-3.5-0.9-6.5-1.8-8.9-2.9c-2.4-1.1-4.5-2.3-6.1-3.8
		c-3.9-3.2-5.9-7.4-5.9-12.7c0-2.6,0.5-5.1,1.5-7.4c1-2.3,2.5-4.3,4.4-6c1.9-1.7,4.2-3,6.8-3.8c2.6-0.8,5.5-1.3,8.6-1.3
		c4.6,0,8.8,0.9,12.6,2.6c3.8,1.8,6.8,4.2,8.8,7.4l-7.6,4.7c-1.8-2.2-3.9-3.7-6.3-4.6c-2.4-0.9-4.9-1.4-7.5-1.4
		c-1.9,0-3.6,0.3-5.2,0.9c-1.6,0.6-2.9,1.4-3.9,2.3c-0.9,0.8-1.5,1.7-1.9,2.8c-0.4,1.1-0.6,2.3-0.6,3.5c0,0.8,0.1,1.6,0.4,2.5
		c0.2,0.8,0.8,1.7,1.8,2.6c0.9,0.9,2.3,1.8,4.1,2.6c1.8,0.8,4.3,1.7,7.4,2.5c3.8,0.9,6.9,2,9.5,3c2.6,1.1,4.7,2.4,6.5,3.9
		C597.2,519.7,599.3,524.2,599.3,529.7z"/>
	<path class="st11" d="M630.6,548.5c-3.3,0-6.3-0.6-9.1-1.8c-2.8-1.2-5.3-2.9-7.5-5c-2.1-2.1-3.8-4.6-5-7.5
		c-1.2-2.9-1.8-5.9-1.8-9.2c0-3.2,0.6-6.3,1.7-9.2c1.2-2.9,2.7-5.4,4.7-7.5c2-2.1,4.3-3.8,6.9-5c2.6-1.2,5.4-1.8,8.4-1.8
		c3.1,0,5.9,0.5,8.5,1.6c2.6,1.1,4.8,2.7,6.8,5c1.9,2.3,3.4,5.1,4.5,8.6c1.1,3.5,1.6,7.6,1.6,12.4h-33.4c0.4,1.6,1.1,3.1,2.1,4.5
		s2,2.6,3.3,3.7c1.3,1,2.7,1.8,4.3,2.4s3.3,0.8,5,0.8c2.4,0,4.6-0.4,6.6-1.3c2-0.9,3.8-2,5.2-3.5l5.6,5.6c-2.2,2.2-4.9,3.9-8,5.3
		S634.4,548.5,630.6,548.5z M628.9,509.7c-1.4,0-2.8,0.3-4.1,0.8c-1.3,0.6-2.5,1.3-3.6,2.3c-1.1,1-2,2.2-2.8,3.6
		c-0.8,1.4-1.4,2.9-1.7,4.5h23.7c-0.1-1.5-0.5-2.9-1-4.3c-0.6-1.4-1.3-2.6-2.3-3.6c-1-1-2.2-1.8-3.5-2.4
		C632.2,510,630.7,509.7,628.9,509.7z"/>
	<path class="st11" d="M679.5,548.5c-3.1,0-6-0.6-8.8-1.8c-2.7-1.2-5.1-2.9-7.1-5c-2-2.1-3.6-4.6-4.8-7.5c-1.2-2.9-1.8-5.9-1.8-9.2
		c0-3.2,0.6-6.3,1.8-9.2c1.2-2.9,2.8-5.4,4.8-7.5c2-2.1,4.4-3.8,7.1-5c2.7-1.2,5.6-1.8,8.8-1.8c3.6,0,7,0.8,10,2.4
		c3.1,1.6,5.6,3.8,7.7,6.7l-6.4,5c-1.3-1.8-2.8-3.2-4.7-4.3c-1.9-1-4-1.5-6.1-1.5c-1.9,0-3.7,0.4-5.3,1.2c-1.7,0.8-3.2,1.9-4.4,3.2
		c-1.3,1.4-2.2,3-3,4.9c-0.7,1.9-1.1,3.9-1.1,6c0,2.1,0.4,4.1,1.1,6c0.7,1.9,1.7,3.5,3,4.9c1.2,1.4,2.7,2.5,4.4,3.3
		c1.7,0.8,3.5,1.2,5.3,1.2c2.4,0,4.7-0.7,6.7-2c2-1.3,3.6-3.1,4.9-5.3l6.2,5.4c-2,3-4.6,5.4-7.8,7.2
		C686.8,547.6,683.3,548.5,679.5,548.5z"/>
	<path class="st11" d="M737,543.4c-1.6,1.4-3.4,2.6-5.5,3.6c-2.1,0.9-4.4,1.4-7,1.4c-1.6,0-3.5-0.2-5.5-0.7c-2.1-0.5-4-1.4-5.8-2.8
		c-1.8-1.4-3.3-3.3-4.5-5.7c-1.2-2.4-1.8-5.5-1.8-9.4v-27.3h8.6v27.3c0,1.9,0.3,3.6,0.9,4.9c0.6,1.3,1.4,2.4,2.3,3.2
		c1,0.8,2.1,1.4,3.3,1.8c1.3,0.4,2.5,0.6,3.8,0.6c1,0,2.1-0.2,3.4-0.6c1.3-0.4,2.5-1,3.6-1.8s2.1-1.9,2.9-3.2
		c0.8-1.3,1.2-2.9,1.2-4.8v-27.4h9.1v44.9h-7.2L737,543.4z"/>
	<path class="st11" d="M782.6,511.3c-0.4-0.1-0.8-0.2-1.3-0.4c-0.5-0.1-1-0.2-1.6-0.2c-1.8,0-3.5,0.3-5.1,0.9
		c-1.6,0.6-2.9,1.4-4,2.4c-1.1,1-2,2.2-2.7,3.5c-0.7,1.3-1,2.8-1,4.3l-0.1,26.6h-9.1v-44.9h7.2l1.9,5c1.3-1.8,2.9-3.3,4.9-4.4
		c2-1.1,4.6-1.6,7.6-1.6c2,0,4.3,0.3,6.8,0.8l-2.3,8.5C783.5,511.6,783,511.5,782.6,511.3z"/>
	<path class="st11" d="M797.1,493.7c-1.6,0-3-0.6-4.1-1.7c-1.1-1.2-1.7-2.5-1.7-4.2c0-1.6,0.6-3,1.7-4.1c1.1-1.1,2.5-1.7,4.1-1.7
		c1.6,0,3,0.6,4.1,1.7s1.7,2.5,1.7,4.1c0,1.6-0.6,3-1.7,4.2C800.1,493.2,798.7,493.7,797.1,493.7z M801.8,548.4h-9.2v-44.9h9.1
		L801.8,548.4z"/>
	<path class="st11" d="M828.7,548.8c-2.5,0.2-4.8-0.2-6.8-1.1c-2-0.9-3.6-2.5-4.9-4.8c-1.3-2.3-1.9-5.5-1.9-9.6v-22.8h-6.6v-6.2
		l6.6-1.9v-12h9.1v12h12.2v8.1h-12.2v24.2c0,1.5,0.2,2.7,0.5,3.6c0.3,0.9,0.9,1.5,1.7,2c0.8,0.4,1.9,0.7,3.2,0.7s2.9-0.1,4.8-0.4
		l1.8,6.7C833.7,548.1,831.2,548.6,828.7,548.8z"/>
	<path class="st11" d="M858.7,543.3l-19-39.8h10.1l13.9,29.2l13.6-29.2h10l-29,62.8h-10L858.7,543.3z"/>
	<line class="st12" x1="112.7" y1="589.1" x2="887.3" y2="589.1"/>
	<line class="st12" x1="112.7" y1="566.3" x2="112.7" y2="591"/>
	<line class="st12" x1="243.9" y1="566.3" x2="243.9" y2="591"/>
	<line class="st12" x1="887.3" y1="566.3" x2="887.3" y2="591"/>
	<text transform="matrix(1 0 0 1 125.4569 635.8054)" class="st13 st3 st14">icon</text>
	<text transform="matrix(1 0 0 1 436.2438 635.8052)" class="st13 st3 st14">wordmark</text>
</g>
<g id="HouseIdentify" class="st0">
	<path class="st15" d="M233.9,396.5h11.5c1.7,0,3,1.4,3,3v3.2c0,1.5,1.7,2.2,2.8,1.2l21.4-20.2c1.2-1.1,3-1.1,4.2,0l52.5,49.3
		c0.6,0.6,1,1.4,1,2.2V542c0,1.7-1.4,3-3,3H222.4c-1.7,0-3-1.4-3-3V435.3c0-0.8,0.3-1.6,1-2.2l9.6-9.1c0.6-0.6,1-1.4,1-2.2v-22.3
		C230.9,397.8,232.3,396.5,233.9,396.5z"/>
	<rect x="258.7" y="461.3" class="st9" width="32.2" height="41.2"/>
	<polyline class="st16" points="290.9,464.8 303.1,464.8 303.1,452 	"/>
	<polyline class="st16" points="290.9,475 310.5,475 310.5,463.6 317.7,463.6 	"/>
	<polyline class="st16" points="290.9,486.2 314.1,486.2 314.1,496 320.7,496 	"/>
	<polyline class="st16" points="290.9,499.2 298.6,499.2 298.6,511 310.7,511 310.7,519.3 	"/>
	<polyline class="st16" points="258.7,464.3 246.8,464.3 246.8,445.8 	"/>
	<polyline class="st16" points="258.7,474.2 239.7,474.2 239.7,468.8 228.1,468.8 	"/>
	<polyline class="st16" points="258.7,486.2 240.3,486.2 240.3,499.2 230.9,499.2 230.9,510.9 	"/>
	<polyline class="st16" points="258.7,500.5 256.2,500.5 256.2,516.4 247.4,516.4 247.4,525 	"/>
	<path class="st2" d="M246.8,450.8L246.8,450.8c-2.2,0-4-1.8-4-4l0,0c0-2.2,1.8-4,4-4h0c2.2,0,4,1.8,4,4l0,0
		C250.9,449,249.1,450.8,246.8,450.8z"/>
	<path class="st2" d="M229.6,472.8L229.6,472.8c-2.2,0-4-1.8-4-4l0,0c0-2.2,1.8-4,4-4h0c2.2,0,4,1.8,4,4l0,0
		C233.6,471,231.8,472.8,229.6,472.8z"/>
	<path class="st2" d="M230.9,514.9L230.9,514.9c-2.2,0-4-1.8-4-4v0c0-2.2,1.8-4,4-4l0,0c2.2,0,4,1.8,4,4v0
		C234.9,513.1,233.1,514.9,230.9,514.9z"/>
	<path class="st2" d="M247.4,529L247.4,529c-2.2,0-4-1.8-4-4l0,0c0-2.2,1.8-4,4-4l0,0c2.2,0,4,1.8,4,4l0,0
		C251.4,527.2,249.6,529,247.4,529z"/>
	<path class="st2" d="M310.7,523.3L310.7,523.3c-2.2,0-4-1.8-4-4v0c0-2.2,1.8-4,4-4h0c2.2,0,4,1.8,4,4v0
		C314.7,521.5,312.9,523.3,310.7,523.3z"/>
	<path class="st2" d="M321.4,500L321.4,500c-2.2,0-4-1.8-4-4v0c0-2.2,1.8-4,4-4l0,0c2.2,0,4,1.8,4,4v0
		C325.4,498.2,323.6,500,321.4,500z"/>
	<path class="st2" d="M319.4,467.6L319.4,467.6c-2.2,0-4-1.8-4-4l0,0c0-2.2,1.8-4,4-4l0,0c2.2,0,4,1.8,4,4l0,0
		C323.5,465.8,321.7,467.6,319.4,467.6z"/>
	<path class="st2" d="M303.1,454.2L303.1,454.2c-2.2,0-4-1.8-4-4l0,0c0-2.2,1.8-4,4-4h0c2.2,0,4,1.8,4,4l0,0
		C307.2,452.4,305.3,454.2,303.1,454.2z"/>
	<path class="st2" d="M397.2,483h9.8v66h-9.8v-30.3h-37V549h-9.8v-66h9.8v26.7h37V483z"/>
	<path class="st2" d="M497.1,544c-1.6,1.4-3.4,2.6-5.4,3.5c-2.1,0.9-4.4,1.4-6.9,1.4c-1.6,0-3.4-0.2-5.5-0.7c-2-0.5-4-1.4-5.7-2.7
		c-1.8-1.4-3.3-3.2-4.5-5.6c-1.2-2.4-1.8-5.5-1.8-9.4v-27.1h8.6v27.1c0,1.9,0.3,3.6,0.9,4.9c0.6,1.3,1.4,2.4,2.3,3.2
		c1,0.8,2.1,1.4,3.3,1.8c1.2,0.4,2.5,0.6,3.8,0.6c1,0,2.1-0.2,3.4-0.6c1.3-0.4,2.5-1,3.6-1.8c1.1-0.8,2.1-1.9,2.8-3.2
		c0.8-1.3,1.2-2.9,1.2-4.7v-27.2h9V548H499L497.1,544z"/>
	<path class="st2" d="M537.5,538.7c0.6-0.5,1.1-1.1,1.5-1.7c0.4-0.6,0.7-1.3,0.7-2.1c0-1-0.4-1.8-1.1-2.5c-0.7-0.7-1.6-1.3-2.6-1.7
		c-1-0.5-2.1-0.8-3.2-1.1c-1.1-0.2-2-0.5-2.8-0.7c-2-0.5-4-1.1-5.8-1.8c-1.8-0.7-3.4-1.6-4.7-2.6c-1.3-1-2.4-2.2-3.2-3.6
		c-0.8-1.4-1.2-3.1-1.2-5c0-1.8,0.4-3.5,1.3-5.1c0.9-1.6,2-3,3.5-4.2c1.4-1.2,3.1-2.2,5.1-2.9c1.9-0.7,4-1.1,6.2-1.1
		c1.9,0,3.8,0.3,5.5,0.8c1.7,0.6,3.3,1.3,4.7,2.3c1.4,1,2.6,2.1,3.5,3.5c1,1.4,1.6,2.9,1.9,4.6l-8.1,2c-0.4-1.5-1.2-2.7-2.4-3.7
		c-1.2-1-2.9-1.5-5.1-1.5c-0.7,0-1.5,0.1-2.3,0.3s-1.6,0.5-2.2,1c-0.7,0.4-1.3,1-1.7,1.6c-0.5,0.6-0.7,1.3-0.7,2.1
		c0,0.9,0.3,1.6,0.8,2.2s1.2,1.1,1.9,1.5c0.7,0.4,1.6,0.7,2.4,1c0.9,0.2,1.7,0.5,2.4,0.6c3.3,0.8,6,1.7,8.2,2.6
		c2.2,0.9,3.9,2,5.2,3.1s2.2,2.3,2.7,3.7c0.5,1.3,0.8,2.8,0.8,4.5c0,2-0.4,3.8-1.3,5.6c-0.9,1.7-2.1,3.2-3.7,4.5
		c-1.6,1.3-3.5,2.3-5.7,3c-2.2,0.7-4.6,1.1-7.1,1.1c-3.8,0-7.3-0.9-10.3-2.8s-5-4.4-6.1-7.6l7.6-3.4c1,2.2,2.3,3.6,3.8,4.4
		c1.6,0.8,3.3,1.2,5.3,1.2C533.8,540.8,535.8,540.1,537.5,538.7z"/>
	<path class="st2" d="M577.9,549.1c-3.2,0-6.3-0.6-9.1-1.8c-2.8-1.2-5.3-2.9-7.4-5c-2.1-2.1-3.8-4.6-5-7.4c-1.2-2.9-1.8-5.9-1.8-9.1
		c0-3.2,0.6-6.3,1.7-9.1c1.1-2.9,2.7-5.3,4.7-7.4c2-2.1,4.2-3.8,6.8-5c2.6-1.2,5.4-1.8,8.4-1.8c3,0,5.8,0.5,8.4,1.6
		c2.6,1.1,4.8,2.7,6.7,4.9c1.9,2.2,3.4,5.1,4.4,8.5c1.1,3.4,1.6,7.6,1.6,12.3h-33.1c0.4,1.6,1.1,3.1,2,4.5c0.9,1.4,2,2.6,3.3,3.6
		c1.3,1,2.7,1.8,4.3,2.4c1.6,0.6,3.2,0.8,5,0.8c2.4,0,4.5-0.4,6.6-1.3c2-0.9,3.7-2,5.2-3.4l5.6,5.6c-2.2,2.2-4.8,3.9-8,5.2
		C585.1,548.5,581.6,549.1,577.9,549.1z M576.2,510.6c-1.4,0-2.8,0.3-4.1,0.8c-1.3,0.6-2.5,1.3-3.5,2.3c-1.1,1-2,2.2-2.8,3.5
		c-0.8,1.4-1.4,2.9-1.7,4.5h23.6c-0.1-1.5-0.5-2.9-1-4.3c-0.6-1.4-1.3-2.6-2.3-3.6c-1-1-2.2-1.8-3.5-2.4
		C579.5,510.9,578,510.6,576.2,510.6z"/>
	<path class="st11" d="M637.3,539.9c3.6,0,6.9-0.9,10-2.6c3.1-1.7,5.7-4,7.8-6.9l6.8,6.5c-3,3.5-6.6,6.4-10.8,8.7
		c-4.3,2.2-8.8,3.4-13.7,3.4c-4.5,0-8.7-0.9-12.7-2.7s-7.4-4.2-10.4-7.3c-2.9-3.1-5.3-6.7-7-10.8c-1.7-4.1-2.6-8.5-2.6-13.1
		c0-4.7,0.9-9,2.6-13.1c1.7-4.1,4.1-7.7,7-10.8c2.9-3.1,6.4-5.5,10.4-7.3c4-1.8,8.2-2.7,12.7-2.7c4.2,0,8.1,0.8,11.8,2.5
		c3.7,1.6,7,3.8,9.9,6.5l-5.8,7.4c-2-2.2-4.4-4-7.2-5.4c-2.7-1.4-5.6-2.1-8.8-2.1c-3.2,0-6.1,0.7-8.9,2c-2.8,1.3-5.2,3.2-7.2,5.4
		c-2,2.3-3.7,5-4.9,8c-1.2,3-1.8,6.2-1.8,9.6c0,3.4,0.6,6.6,1.8,9.6c1.2,3,2.8,5.6,4.9,7.9c2,2.3,4.5,4.1,7.2,5.4
		C631.2,539.3,634.2,539.9,637.3,539.9z"/>
	<path class="st11" d="M689.6,549.1c-3.1,0-6-0.6-8.7-1.8c-2.7-1.2-5.1-2.9-7.1-5c-2-2.1-3.6-4.6-4.8-7.4c-1.2-2.9-1.8-5.9-1.8-9.1
		c0-3.2,0.6-6.3,1.8-9.1c1.2-2.9,2.8-5.3,4.8-7.4c2-2.1,4.4-3.8,7.1-5c2.7-1.2,5.6-1.8,8.7-1.8c3,0,5.9,0.6,8.7,1.8
		c2.7,1.2,5.1,2.9,7.1,5c2,2.1,3.6,4.6,4.8,7.4c1.2,2.9,1.8,5.9,1.8,9.1c0,3.2-0.6,6.3-1.8,9.1c-1.2,2.9-2.8,5.3-4.8,7.4
		c-2,2.1-4.4,3.8-7.1,5C695.5,548.5,692.6,549.1,689.6,549.1z M689.5,510.4c-1.8,0-3.5,0.4-5.1,1.2c-1.6,0.8-3,1.9-4.3,3.3
		c-1.2,1.4-2.2,3-2.8,4.9c-0.7,1.9-1,3.9-1,6c0,2.1,0.3,4.1,1,6c0.7,1.9,1.6,3.5,2.8,4.9c1.2,1.4,2.6,2.5,4.3,3.3
		c1.6,0.8,3.3,1.2,5.1,1.2c1.8,0,3.5-0.4,5.1-1.2s3-1.9,4.2-3.3c1.2-1.4,2.1-3,2.8-4.9s1-3.9,1-6c0-2.1-0.3-4.1-1-6
		s-1.6-3.5-2.8-4.9c-1.2-1.4-2.6-2.5-4.2-3.3C693,510.8,691.3,510.4,689.5,510.4z"/>
	<path class="st2" d="M437.3,549.1c-3.1,0-6-0.6-8.7-1.8c-2.7-1.2-5.1-2.9-7.1-5c-2-2.1-3.6-4.6-4.8-7.4c-1.2-2.9-1.8-5.9-1.8-9.1
		c0-3.2,0.6-6.3,1.8-9.1c1.2-2.9,2.8-5.3,4.8-7.4c2-2.1,4.4-3.8,7.1-5c2.7-1.2,5.6-1.8,8.7-1.8c3,0,5.9,0.6,8.7,1.8
		c2.7,1.2,5.1,2.9,7.1,5c2,2.1,3.6,4.6,4.8,7.4c1.2,2.9,1.8,5.9,1.8,9.1c0,3.2-0.6,6.3-1.8,9.1c-1.2,2.9-2.8,5.3-4.8,7.4
		c-2,2.1-4.4,3.8-7.1,5C443.2,548.5,440.4,549.1,437.3,549.1z M437.3,510.4c-1.8,0-3.5,0.4-5.1,1.2c-1.6,0.8-3,1.9-4.3,3.3
		c-1.2,1.4-2.2,3-2.9,4.9c-0.7,1.9-1,3.9-1,6c0,2.1,0.3,4.1,1,6c0.7,1.9,1.6,3.5,2.9,4.9c1.2,1.4,2.6,2.5,4.3,3.3
		c1.6,0.8,3.3,1.2,5.1,1.2c1.8,0,3.5-0.4,5.1-1.2c1.6-0.8,3-1.9,4.2-3.3c1.2-1.4,2.1-3,2.8-4.9c0.7-1.9,1-3.9,1-6c0-2.1-0.3-4.1-1-6
		c-0.7-1.9-1.6-3.5-2.8-4.9c-1.2-1.4-2.6-2.5-4.2-3.3C440.8,510.8,439.1,510.4,437.3,510.4z"/>
	<path class="st11" d="M728.2,548h-9v-44.6h7.2l1.9,3.8c1.1-1.3,2.5-2.4,4-3.4c1.6-1,3.4-1.4,5.7-1.4c0.9,0,1.8,0.1,2.9,0.3
		c1.1,0.2,2.2,0.6,3.4,1.1c1.1,0.5,2.3,1.2,3.3,2.1c1.1,0.9,2,2.1,2.7,3.5c1.1-1.9,2.7-3.6,4.8-5s4.4-2.1,6.8-2.1
		c1.6,0,3.3,0.2,5.1,0.7c1.8,0.5,3.5,1.4,5,2.8c1.6,1.4,2.8,3.3,3.8,5.7c1,2.4,1.5,5.6,1.5,9.4v27h-8.5v-27.1c0-3.8-0.8-6.5-2.4-8.1
		c-1.6-1.5-3.7-2.3-6.3-2.3c-2,0-3.7,0.8-5.2,2.5s-2.2,4.3-2.2,7.9v27h-8.5v-27.1c0-3.8-0.8-6.5-2.4-8.1c-1.6-1.5-3.7-2.3-6.3-2.3
		c-1.9,0-3.5,0.7-4.9,2.1c-1.4,1.4-2.2,3.7-2.5,6.7V548z"/>
	<line class="st12" x1="211.7" y1="590" x2="788.3" y2="590"/>
	<line class="st12" x1="211.7" y1="567.3" x2="211.7" y2="591.9"/>
	<line class="st12" x1="339.8" y1="567.3" x2="339.8" y2="591.9"/>
	<line class="st12" x1="788.3" y1="567.3" x2="788.3" y2="591.9"/>
	<text transform="matrix(1 0 0 1 228.0843 637.0593)" class="st13 st3 st14">icon</text>
	<text transform="matrix(1 0 0 1 448.8713 637.059)" class="st13 st3 st14">wordmark</text>
</g>
<g id="HouseSpacing" class="st0">
	<path class="st15" d="M236.9,433.6h11.5c1.7,0,3,1.4,3,3v3.2c0,1.5,1.7,2.2,2.8,1.2l21.4-20.2c1.2-1.1,3-1.1,4.2,0l52.5,49.3
		c0.6,0.6,1,1.4,1,2.2v106.6c0,1.7-1.4,3-3,3H225.3c-1.7,0-3-1.4-3-3V472.5c0-0.8,0.3-1.6,1-2.2l9.6-9.1c0.6-0.6,1-1.4,1-2.2v-22.3
		C233.9,435,235.2,433.6,236.9,433.6z"/>
	<rect x="261.7" y="498.4" class="st9" width="32.2" height="41.2"/>
	<polyline class="st16" points="293.9,501.9 306.1,501.9 306.1,489.1 	"/>
	<polyline class="st16" points="293.9,512.1 313.5,512.1 313.5,500.7 320.7,500.7 	"/>
	<polyline class="st16" points="293.9,523.3 317.1,523.3 317.1,533.1 323.7,533.1 	"/>
	<polyline class="st16" points="293.9,536.4 301.5,536.4 301.5,548.2 313.7,548.2 313.7,556.4 	"/>
	<polyline class="st16" points="261.7,501.4 249.8,501.4 249.8,483 	"/>
	<polyline class="st16" points="261.7,511.3 242.6,511.3 242.6,505.9 231,505.9 	"/>
	<polyline class="st16" points="261.7,523.3 243.3,523.3 243.3,536.4 233.8,536.4 233.8,548 	"/>
	<polyline class="st16" points="261.7,537.6 259.2,537.6 259.2,553.6 250.4,553.6 250.4,562.1 	"/>
	<path class="st2" d="M249.8,487.9L249.8,487.9c-2.2,0-4-1.8-4-4v0c0-2.2,1.8-4,4-4h0c2.2,0,4,1.8,4,4v0
		C253.8,486.1,252,487.9,249.8,487.9z"/>
	<path class="st2" d="M232.6,509.9L232.6,509.9c-2.2,0-4-1.8-4-4v0c0-2.2,1.8-4,4-4l0,0c2.2,0,4,1.8,4,4v0
		C236.6,508.1,234.8,509.9,232.6,509.9z"/>
	<path class="st2" d="M233.8,552L233.8,552c-2.2,0-4-1.8-4-4l0,0c0-2.2,1.8-4,4-4h0c2.2,0,4,1.8,4,4l0,0
		C237.8,550.2,236,552,233.8,552z"/>
	<path class="st2" d="M250.4,566.2L250.4,566.2c-2.2,0-4-1.8-4-4l0,0c0-2.2,1.8-4,4-4l0,0c2.2,0,4,1.8,4,4l0,0
		C254.4,564.4,252.6,566.2,250.4,566.2z"/>
	<path class="st2" d="M313.7,560.4L313.7,560.4c-2.2,0-4-1.8-4-4l0,0c0-2.2,1.8-4,4-4l0,0c2.2,0,4,1.8,4,4l0,0
		C317.7,558.6,315.9,560.4,313.7,560.4z"/>
	<path class="st2" d="M324.4,537.1L324.4,537.1c-2.2,0-4-1.8-4-4l0,0c0-2.2,1.8-4,4-4l0,0c2.2,0,4,1.8,4,4l0,0
		C328.4,535.3,326.6,537.1,324.4,537.1z"/>
	<path class="st2" d="M322.4,504.7L322.4,504.7c-2.2,0-4-1.8-4-4l0,0c0-2.2,1.8-4,4-4l0,0c2.2,0,4,1.8,4,4l0,0
		C326.4,502.9,324.6,504.7,322.4,504.7z"/>
	<path class="st2" d="M306.1,491.4L306.1,491.4c-2.2,0-4-1.8-4-4v0c0-2.2,1.8-4,4-4l0,0c2.2,0,4,1.8,4,4v0
		C310.1,489.5,308.3,491.4,306.1,491.4z"/>
	<path class="st2" d="M400.2,520.1h9.8v66h-9.8v-30.3h-37v30.3h-9.8v-66h9.8v26.7h37V520.1z"/>
	<g class="st2">
		<path class="st17" d="M399.8,586.4h9.8v66h-9.8v-30.3h-37v30.3h-9.8v-66h9.8v26.7h37V586.4z"/>
	</g>
	<g class="st2">
		<path class="st17" d="M152.1,539.7l0-9.8h66l0,9.8h-30.3v37h30.3l0,9.8h-66l0-9.8h26.7v-37H152.1z"/>
	</g>
	<g class="st2">
		<path class="st17" d="M808.6,460.3v-37h-26.7v-9.8h66v9.8h-30.3v37h30.3v9.8h-66v-9.8H808.6z"/>
	</g>
	<g class="st2">
		<path class="st17" d="M735.1,374.3l37,0v-26.7h9.8v66h-9.8v-30.3l-37,0v30.3h-9.8v-66h9.8V374.3z"/>
	</g>
	<path class="st2" d="M500.1,581.1c-1.6,1.4-3.4,2.6-5.4,3.5c-2.1,0.9-4.4,1.4-6.9,1.4c-1.6,0-3.4-0.2-5.5-0.7c-2-0.5-4-1.4-5.7-2.7
		c-1.8-1.4-3.3-3.2-4.5-5.6c-1.2-2.4-1.8-5.5-1.8-9.4v-27.1h8.6v27.1c0,1.9,0.3,3.6,0.9,4.9c0.6,1.3,1.4,2.4,2.3,3.2
		c1,0.8,2.1,1.4,3.3,1.8c1.2,0.4,2.5,0.6,3.8,0.6c1,0,2.1-0.2,3.4-0.6c1.3-0.4,2.5-1,3.6-1.8c1.1-0.8,2.1-1.9,2.8-3.2
		c0.8-1.3,1.2-2.9,1.2-4.7v-27.2h9v44.6h-7.2L500.1,581.1z"/>
	<path class="st2" d="M540.5,575.8c0.6-0.5,1.1-1.1,1.5-1.7c0.4-0.6,0.7-1.3,0.7-2.1c0-1-0.4-1.8-1.1-2.5c-0.7-0.7-1.6-1.3-2.6-1.7
		c-1-0.5-2.1-0.8-3.2-1.1c-1.1-0.2-2-0.5-2.8-0.7c-2-0.5-4-1.1-5.8-1.8c-1.8-0.7-3.4-1.6-4.7-2.6c-1.3-1-2.4-2.2-3.2-3.6
		c-0.8-1.4-1.2-3.1-1.2-5c0-1.8,0.4-3.5,1.3-5.1c0.9-1.6,2-3,3.5-4.2c1.4-1.2,3.1-2.2,5.1-2.9c1.9-0.7,4-1.1,6.2-1.1
		c1.9,0,3.8,0.3,5.5,0.8c1.7,0.6,3.3,1.3,4.7,2.3c1.4,1,2.6,2.1,3.5,3.5c1,1.4,1.6,2.9,1.9,4.6l-8.1,2c-0.4-1.5-1.2-2.7-2.4-3.7
		c-1.2-1-2.9-1.5-5.1-1.5c-0.7,0-1.5,0.1-2.3,0.3s-1.6,0.5-2.2,1c-0.7,0.4-1.3,1-1.7,1.6c-0.5,0.6-0.7,1.3-0.7,2.1
		c0,0.9,0.3,1.6,0.8,2.2s1.2,1.1,1.9,1.5c0.7,0.4,1.6,0.7,2.4,1c0.9,0.2,1.7,0.5,2.4,0.6c3.3,0.8,6,1.7,8.2,2.6
		c2.2,0.9,3.9,2,5.2,3.1s2.2,2.3,2.7,3.7c0.5,1.3,0.8,2.8,0.8,4.5c0,2-0.4,3.8-1.3,5.6c-0.9,1.7-2.1,3.2-3.7,4.5
		c-1.6,1.3-3.5,2.3-5.7,3c-2.2,0.7-4.6,1.1-7.1,1.1c-3.8,0-7.3-0.9-10.3-2.8s-5-4.4-6.1-7.6l7.6-3.4c1,2.2,2.3,3.6,3.8,4.4
		c1.6,0.8,3.3,1.2,5.3,1.2C536.7,577.9,538.8,577.2,540.5,575.8z"/>
	<path class="st2" d="M580.9,586.3c-3.2,0-6.3-0.6-9.1-1.8c-2.8-1.2-5.3-2.9-7.4-5c-2.1-2.1-3.8-4.6-5-7.4c-1.2-2.9-1.8-5.9-1.8-9.1
		c0-3.2,0.6-6.3,1.7-9.1c1.1-2.9,2.7-5.3,4.7-7.4c2-2.1,4.2-3.8,6.8-5c2.6-1.2,5.4-1.8,8.4-1.8c3,0,5.8,0.5,8.4,1.6
		c2.6,1.1,4.8,2.7,6.7,4.9c1.9,2.2,3.4,5.1,4.4,8.5c1.1,3.4,1.6,7.6,1.6,12.3h-33.1c0.4,1.6,1.1,3.1,2,4.5c0.9,1.4,2,2.6,3.3,3.6
		c1.3,1,2.7,1.8,4.3,2.4c1.6,0.6,3.2,0.8,5,0.8c2.4,0,4.5-0.4,6.6-1.3c2-0.9,3.7-2,5.2-3.4l5.6,5.6c-2.2,2.2-4.8,3.9-8,5.2
		C588,585.6,584.6,586.3,580.9,586.3z M579.2,547.7c-1.4,0-2.8,0.3-4.1,0.8c-1.3,0.6-2.5,1.3-3.5,2.3c-1.1,1-2,2.2-2.8,3.5
		c-0.8,1.4-1.4,2.9-1.7,4.5h23.6c-0.1-1.5-0.5-2.9-1-4.3c-0.6-1.4-1.3-2.6-2.3-3.6c-1-1-2.2-1.8-3.5-2.4
		C582.5,548,581,547.7,579.2,547.7z"/>
	<path class="st11" d="M640.3,577c3.6,0,6.9-0.9,10-2.6c3.1-1.7,5.7-4,7.8-6.9l6.8,6.5c-3,3.5-6.6,6.4-10.8,8.7
		c-4.3,2.2-8.8,3.4-13.7,3.4c-4.5,0-8.7-0.9-12.7-2.7s-7.4-4.2-10.4-7.3c-2.9-3.1-5.3-6.7-7-10.8c-1.7-4.1-2.6-8.5-2.6-13.1
		c0-4.7,0.9-9,2.6-13.1c1.7-4.1,4.1-7.7,7-10.8c2.9-3.1,6.4-5.5,10.4-7.3c4-1.8,8.2-2.7,12.7-2.7c4.2,0,8.1,0.8,11.8,2.5
		c3.7,1.6,7,3.8,9.9,6.5l-5.8,7.4c-2-2.2-4.4-4-7.2-5.4c-2.7-1.4-5.6-2.1-8.8-2.1c-3.2,0-6.1,0.7-8.9,2c-2.8,1.3-5.2,3.2-7.2,5.4
		c-2,2.3-3.7,5-4.9,8c-1.2,3-1.8,6.2-1.8,9.6c0,3.4,0.6,6.6,1.8,9.6c1.2,3,2.8,5.6,4.9,7.9c2,2.3,4.5,4.1,7.2,5.4
		C634.2,576.4,637.1,577,640.3,577z"/>
	<path class="st11" d="M692.5,586.3c-3.1,0-6-0.6-8.7-1.8c-2.7-1.2-5.1-2.9-7.1-5c-2-2.1-3.6-4.6-4.8-7.4c-1.2-2.9-1.8-5.9-1.8-9.1
		c0-3.2,0.6-6.3,1.8-9.1c1.2-2.9,2.8-5.3,4.8-7.4c2-2.1,4.4-3.8,7.1-5c2.7-1.2,5.6-1.8,8.7-1.8c3,0,5.9,0.6,8.7,1.8
		c2.7,1.2,5.1,2.9,7.1,5c2,2.1,3.6,4.6,4.8,7.4c1.2,2.9,1.8,5.9,1.8,9.1c0,3.2-0.6,6.3-1.8,9.1c-1.2,2.9-2.8,5.3-4.8,7.4
		c-2,2.1-4.4,3.8-7.1,5C698.5,585.7,695.6,586.3,692.5,586.3z M692.5,547.5c-1.8,0-3.5,0.4-5.1,1.2c-1.6,0.8-3,1.9-4.3,3.3
		c-1.2,1.4-2.2,3-2.8,4.9c-0.7,1.9-1,3.9-1,6c0,2.1,0.3,4.1,1,6c0.7,1.9,1.6,3.5,2.8,4.9c1.2,1.4,2.6,2.5,4.3,3.3
		c1.6,0.8,3.3,1.2,5.1,1.2c1.8,0,3.5-0.4,5.1-1.2s3-1.9,4.2-3.3c1.2-1.4,2.1-3,2.8-4.9s1-3.9,1-6c0-2.1-0.3-4.1-1-6
		s-1.6-3.5-2.8-4.9c-1.2-1.4-2.6-2.5-4.2-3.3C696,547.9,694.3,547.5,692.5,547.5z"/>
	<path class="st2" d="M440.3,586.3c-3.1,0-6-0.6-8.7-1.8c-2.7-1.2-5.1-2.9-7.1-5c-2-2.1-3.6-4.6-4.8-7.4c-1.2-2.9-1.8-5.9-1.8-9.1
		c0-3.2,0.6-6.3,1.8-9.1c1.2-2.9,2.8-5.3,4.8-7.4c2-2.1,4.4-3.8,7.1-5c2.7-1.2,5.6-1.8,8.7-1.8c3,0,5.9,0.6,8.7,1.8
		c2.7,1.2,5.1,2.9,7.1,5c2,2.1,3.6,4.6,4.8,7.4c1.2,2.9,1.8,5.9,1.8,9.1c0,3.2-0.6,6.3-1.8,9.1c-1.2,2.9-2.8,5.3-4.8,7.4
		c-2,2.1-4.4,3.8-7.1,5C446.2,585.7,443.3,586.3,440.3,586.3z M440.2,547.5c-1.8,0-3.5,0.4-5.1,1.2c-1.6,0.8-3,1.9-4.3,3.3
		c-1.2,1.4-2.2,3-2.9,4.9c-0.7,1.9-1,3.9-1,6c0,2.1,0.3,4.1,1,6c0.7,1.9,1.6,3.5,2.9,4.9c1.2,1.4,2.6,2.5,4.3,3.3
		c1.6,0.8,3.3,1.2,5.1,1.2c1.8,0,3.5-0.4,5.1-1.2c1.6-0.8,3-1.9,4.2-3.3c1.2-1.4,2.1-3,2.8-4.9c0.7-1.9,1-3.9,1-6c0-2.1-0.3-4.1-1-6
		c-0.7-1.9-1.6-3.5-2.8-4.9c-1.2-1.4-2.6-2.5-4.2-3.3C443.8,547.9,442.1,547.5,440.2,547.5z"/>
	<path class="st11" d="M731.2,585.1h-9v-44.6h7.2l1.9,3.8c1.1-1.3,2.5-2.4,4-3.4c1.6-1,3.4-1.4,5.7-1.4c0.9,0,1.8,0.1,2.9,0.3
		c1.1,0.2,2.2,0.6,3.4,1.1c1.1,0.5,2.3,1.2,3.3,2.1c1.1,0.9,2,2.1,2.7,3.5c1.1-1.9,2.7-3.6,4.8-5s4.4-2.1,6.8-2.1
		c1.6,0,3.3,0.2,5.1,0.7c1.8,0.5,3.5,1.4,5,2.8c1.6,1.4,2.8,3.3,3.8,5.7c1,2.4,1.5,5.6,1.5,9.4v27h-8.5V558c0-3.8-0.8-6.5-2.4-8.1
		c-1.6-1.5-3.7-2.3-6.3-2.3c-2,0-3.7,0.8-5.2,2.5s-2.2,4.3-2.2,7.9v27h-8.5V558c0-3.8-0.8-6.5-2.4-8.1c-1.6-1.5-3.7-2.3-6.3-2.3
		c-1.9,0-3.5,0.7-4.9,2.1c-1.4,1.4-2.2,3.7-2.5,6.7V585.1z"/>
	<g class="st2">
		<path class="st17" d="M781,414.8v170.6H219.1V414.8H781 M782,413.8h-1H219.1h-1v1v170.6v1h1H781h1v-1V414.8V413.8L782,413.8z"/>
	</g>
	<rect x="152.1" y="347.6" class="st18" width="695.8" height="304.8"/>
</g>
<g id="ThermoSpacing" class="st0">
	<path class="st5" d="M217.2,591.9h-87.1c-6.6,0-12-5.4-12-12v-87.1c0-6.6,5.4-12,12-12h87.1c6.6,0,12,5.4,12,12v87.1
		C229.2,586.5,223.8,591.9,217.2,591.9z"/>
	<path class="st6" d="M223.2,591.9h-1.9c-3.3,0-5.9-2.7-5.9-5.9v-99.2c0-3.3,2.7-5.9,5.9-5.9h1.9c3.3,0,5.9,2.7,5.9,5.9V586
		C229.2,589.2,226.5,591.9,223.2,591.9z"/>
	<path class="st7" d="M217.2,591.9h-87.1c-6.6,0-12-5.4-12-12v-87.1c0-6.6,5.4-12,12-12h87.1c6.6,0,12,5.4,12,12v87.1
		C229.2,586.5,223.8,591.9,217.2,591.9z"/>
	<path class="st8" d="M128.9,480.8v-32.3c0-20.8,16.9-37.7,37.7-37.7h14.1c20.8,0,37.7,16.9,37.7,37.7v32.3H210v-32.3
		c0-16.2-13.2-29.4-29.4-29.4h-14.1c-16.2,0-29.4,13.2-29.4,29.4v32.3H128.9z"/>
	<path class="st9" d="M177,559.5v-57.1c0-1.8-1.7-3.3-3.7-3.3h-3.7c-2,0-3.7,1.5-3.7,3.3v57.1l0,0c-4.5,1.9-7.7,6.1-7.7,10.9
		c0,6.7,5.9,12.1,13.2,12.1s13.2-5.4,13.2-12.1c0-4.8-3.1-9-7.6-10.9L177,559.5z"/>
	<line class="st10" x1="184.1" y1="542.5" x2="192.1" y2="542.5"/>
	<line class="st10" x1="184.1" y1="533.1" x2="192.1" y2="533.1"/>
	<line class="st10" x1="184.1" y1="523.8" x2="192.1" y2="523.8"/>
	<line class="st10" x1="184.1" y1="514.4" x2="192.1" y2="514.4"/>
	<line class="st10" x1="184.1" y1="505.1" x2="192.1" y2="505.1"/>
	<line class="st10" x1="184.1" y1="551.8" x2="192.1" y2="551.8"/>
	<path class="st2" d="M262.3,537.3h-18v-8.8h45.9v8.8h-18.1V595h-9.8V537.3z"/>
	<path class="st13" d="M262.3,604h-18v-8.8h45.9v8.8h-18.1v57.7h-9.8V604z"/>
	<path class="st13" d="M105.5,567.6l0-18h8.8l0,45.9h-8.8v-18.1l-57.7,0l0-9.8L105.5,567.6z"/>
	<path class="st13" d="M952.1,422.3v9.8l-57.7,0v18.1h-8.8v-45.9h8.8v18L952.1,422.3z"/>
	<path class="st13" d="M857.7,337.9h9.8v57.7h18.1v8.8l-45.9,0v-8.8l18,0V337.9z"/>
	<path class="st2" d="M307.2,595h-9.1v-68.4h9.1l0,27.7c1.7-1.9,3.4-3.2,5.3-4c1.8-0.8,4-1.2,6.4-1.2c3.1,0,5.9,0.6,8.4,1.8
		s4.6,2.9,6.3,5c1.7,2.1,3.1,4.6,4,7.5c0.9,2.9,1.4,5.9,1.4,9.2V595h-9.1v-22.4c0-2.1-0.3-4.1-0.9-6c-0.6-1.9-1.4-3.5-2.4-4.9
		c-1-1.4-2.2-2.5-3.6-3.2c-1.3-0.8-2.8-1.2-4.4-1.2c-1.3,0-2.6,0.3-3.9,0.8c-1.3,0.5-2.5,1.4-3.6,2.6c-1.1,1.2-2,2.8-2.7,4.7
		c-0.7,1.9-1.1,4.3-1.1,7V595z"/>
	<path class="st2" d="M370.2,596.1c-3.3,0-6.3-0.6-9.1-1.8c-2.8-1.2-5.3-2.9-7.5-5c-2.1-2.1-3.8-4.6-5-7.5c-1.2-2.9-1.8-5.9-1.8-9.2
		c0-3.2,0.6-6.3,1.7-9.2c1.2-2.9,2.7-5.4,4.7-7.5c2-2.1,4.3-3.8,6.9-5c2.6-1.2,5.4-1.8,8.4-1.8c3.1,0,5.9,0.5,8.5,1.6
		c2.6,1.1,4.8,2.7,6.8,5c1.9,2.3,3.4,5.1,4.5,8.6c1.1,3.5,1.6,7.6,1.6,12.4h-33.4c0.4,1.6,1.1,3.1,2.1,4.5s2,2.6,3.3,3.7
		c1.3,1,2.7,1.8,4.3,2.4s3.3,0.8,5,0.8c2.4,0,4.6-0.4,6.6-1.3c2-0.9,3.8-2,5.2-3.5l5.6,5.6c-2.2,2.2-4.9,3.9-8,5.3
		S373.9,596.1,370.2,596.1z M368.5,557.3c-1.4,0-2.8,0.3-4.1,0.8c-1.3,0.6-2.5,1.3-3.6,2.3c-1.1,1-2,2.2-2.8,3.6
		c-0.8,1.4-1.4,2.9-1.7,4.5H380c-0.1-1.5-0.5-2.9-1-4.3c-0.6-1.4-1.3-2.6-2.3-3.6c-1-1-2.2-1.8-3.5-2.4
		C371.8,557.6,370.2,557.3,368.5,557.3z"/>
	<path class="st2" d="M424.4,557.9c-0.4-0.1-0.8-0.2-1.3-0.4c-0.5-0.1-1-0.2-1.6-0.2c-1.8,0-3.5,0.3-5.1,0.9c-1.6,0.6-2.9,1.4-4,2.4
		c-1.1,1-2,2.2-2.7,3.5c-0.7,1.3-1,2.8-1,4.3l-0.1,26.6h-9.1v-44.9h7.2l1.9,5c1.3-1.8,2.9-3.3,4.9-4.4c2-1.1,4.6-1.6,7.6-1.6
		c2,0,4.3,0.3,6.8,0.8l-2.3,8.5C425.2,558.2,424.8,558.1,424.4,557.9z"/>
	<path class="st2" d="M443.1,595H434v-44.9h7.2l1.9,3.8c1.1-1.3,2.5-2.5,4-3.4c1.6-1,3.5-1.5,5.7-1.5c0.9,0,1.9,0.1,3,0.3
		c1.1,0.2,2.2,0.6,3.4,1.1c1.2,0.5,2.3,1.3,3.3,2.2c1.1,0.9,2,2.1,2.7,3.5c1.1-1.9,2.7-3.6,4.8-5s4.5-2.1,6.9-2.1
		c1.6,0,3.3,0.3,5.2,0.8c1.8,0.5,3.5,1.4,5.1,2.8c1.6,1.4,2.8,3.3,3.8,5.7c1,2.4,1.5,5.6,1.5,9.5V595H484v-27.3
		c0-3.9-0.8-6.6-2.4-8.1c-1.6-1.5-3.7-2.3-6.3-2.3c-2,0-3.8,0.8-5.3,2.5s-2.3,4.3-2.3,8V595h-8.5v-27.3c0-3.9-0.8-6.6-2.4-8.1
		c-1.6-1.5-3.7-2.3-6.3-2.3c-1.9,0-3.5,0.7-4.9,2.2c-1.4,1.4-2.2,3.7-2.5,6.8V595z"/>
	<path class="st2" d="M522.9,595.1c-3.1,0-6-0.6-8.8-1.8c-2.7-1.2-5.1-2.9-7.1-5c-2-2.1-3.6-4.6-4.8-7.5c-1.2-2.9-1.8-5.9-1.8-9.2
		c0-3.2,0.6-6.3,1.8-9.2c1.2-2.9,2.8-5.4,4.8-7.5c2-2.1,4.4-3.8,7.1-5c2.7-1.2,5.6-1.8,8.8-1.8c3.1,0,6,0.6,8.7,1.8
		c2.8,1.2,5.1,2.9,7.2,5c2,2.1,3.6,4.6,4.8,7.5c1.2,2.9,1.8,5.9,1.8,9.2c0,3.3-0.6,6.3-1.8,9.2c-1.2,2.9-2.8,5.4-4.8,7.5
		c-2,2.1-4.4,3.8-7.2,5C528.9,594.5,526,595.1,522.9,595.1z M522.8,556.1c-1.8,0-3.5,0.4-5.2,1.2c-1.6,0.8-3.1,1.9-4.3,3.3
		s-2.2,3-2.9,4.9c-0.7,1.9-1,3.9-1,6c0,2.1,0.3,4.1,1,6c0.7,1.9,1.6,3.5,2.9,4.9c1.2,1.4,2.7,2.5,4.3,3.3c1.6,0.8,3.4,1.2,5.2,1.2
		s3.5-0.4,5.2-1.2c1.6-0.8,3-1.9,4.2-3.3c1.2-1.4,2.1-3.1,2.8-4.9c0.7-1.9,1-3.9,1-6c0-2.1-0.3-4.1-1-6c-0.7-1.9-1.6-3.5-2.8-4.9
		s-2.6-2.5-4.2-3.3C526.4,556.5,524.7,556.1,522.8,556.1z"/>
	<path class="st11" d="M597.1,576.3c0,2.8-0.6,5.4-1.7,7.8c-1.1,2.4-2.8,4.5-5,6.3c-4.3,3.6-9.8,5.4-16.6,5.4
		c-5.3,0-10-1.1-14.3-3.2c-4.3-2.1-7.4-5-9.4-8.6l8.3-4.3c1.3,2.3,3.2,4,6,5.2c2.7,1.2,5.8,1.8,9.3,1.8c9.1,0,13.6-3.5,13.6-10.4
		c0-1.3-0.2-2.4-0.7-3.4s-1.2-1.8-2.1-2.6c-2.3-1.9-6.3-3.6-12.1-5.1c-3.5-0.9-6.5-1.8-8.9-2.9c-2.4-1.1-4.5-2.3-6.1-3.8
		c-3.9-3.2-5.9-7.4-5.9-12.7c0-2.6,0.5-5.1,1.5-7.4c1-2.3,2.5-4.3,4.4-6c1.9-1.7,4.2-3,6.8-3.8c2.6-0.8,5.5-1.3,8.6-1.3
		c4.6,0,8.8,0.9,12.6,2.6c3.8,1.8,6.8,4.2,8.8,7.4l-7.6,4.7c-1.8-2.2-3.9-3.7-6.3-4.6c-2.4-0.9-4.9-1.4-7.5-1.4
		c-1.9,0-3.6,0.3-5.2,0.9c-1.6,0.6-2.9,1.4-3.9,2.3c-0.9,0.8-1.5,1.7-1.9,2.8c-0.4,1.1-0.6,2.3-0.6,3.5c0,0.8,0.1,1.6,0.4,2.5
		c0.2,0.8,0.8,1.7,1.8,2.6c0.9,0.9,2.3,1.8,4.1,2.6c1.8,0.8,4.3,1.7,7.4,2.5c3.8,0.9,6.9,2,9.5,3c2.6,1.1,4.7,2.4,6.5,3.9
		C595,566.3,597.1,570.8,597.1,576.3z"/>
	<path class="st11" d="M628.4,595.1c-3.3,0-6.3-0.6-9.1-1.8c-2.8-1.2-5.3-2.9-7.5-5c-2.1-2.1-3.8-4.6-5-7.5
		c-1.2-2.9-1.8-5.9-1.8-9.2c0-3.2,0.6-6.3,1.7-9.2c1.2-2.9,2.7-5.4,4.7-7.5c2-2.1,4.3-3.8,6.9-5c2.6-1.2,5.4-1.8,8.4-1.8
		c3.1,0,5.9,0.5,8.5,1.6c2.6,1.1,4.8,2.7,6.8,5c1.9,2.3,3.4,5.1,4.5,8.6c1.1,3.5,1.6,7.6,1.6,12.4h-33.4c0.4,1.6,1.1,3.1,2.1,4.5
		s2,2.6,3.3,3.7c1.3,1,2.7,1.8,4.3,2.4s3.3,0.8,5,0.8c2.4,0,4.6-0.4,6.6-1.3c2-0.9,3.8-2,5.2-3.5l5.6,5.6c-2.2,2.2-4.9,3.9-8,5.3
		S632.1,595.1,628.4,595.1z M626.7,556.3c-1.4,0-2.8,0.3-4.1,0.8c-1.3,0.6-2.5,1.3-3.6,2.3c-1.1,1-2,2.2-2.8,3.6
		c-0.8,1.4-1.4,2.9-1.7,4.5h23.7c-0.1-1.5-0.5-2.9-1-4.3c-0.6-1.4-1.3-2.6-2.3-3.6c-1-1-2.2-1.8-3.5-2.4
		C630,556.6,628.4,556.3,626.7,556.3z"/>
	<path class="st11" d="M677.3,595.1c-3.1,0-6-0.6-8.8-1.8c-2.7-1.2-5.1-2.9-7.1-5c-2-2.1-3.6-4.6-4.8-7.5c-1.2-2.9-1.8-5.9-1.8-9.2
		c0-3.2,0.6-6.3,1.8-9.2c1.2-2.9,2.8-5.4,4.8-7.5c2-2.1,4.4-3.8,7.1-5c2.7-1.2,5.6-1.8,8.8-1.8c3.6,0,7,0.8,10,2.4
		c3.1,1.6,5.6,3.8,7.7,6.7l-6.4,5c-1.3-1.8-2.8-3.2-4.7-4.3c-1.9-1-4-1.5-6.1-1.5c-1.9,0-3.7,0.4-5.3,1.2c-1.7,0.8-3.2,1.9-4.4,3.2
		c-1.3,1.4-2.2,3-3,4.9c-0.7,1.9-1.1,3.9-1.1,6c0,2.1,0.4,4.1,1.1,6c0.7,1.9,1.7,3.5,3,4.9c1.2,1.4,2.7,2.5,4.4,3.3
		c1.7,0.8,3.5,1.2,5.3,1.2c2.4,0,4.7-0.7,6.7-2c2-1.3,3.6-3.1,4.9-5.3l6.2,5.4c-2,3-4.6,5.4-7.8,7.2
		C684.5,594.2,681.1,595.1,677.3,595.1z"/>
	<path class="st11" d="M734.8,590c-1.6,1.4-3.4,2.6-5.5,3.6c-2.1,0.9-4.4,1.4-7,1.4c-1.6,0-3.5-0.2-5.5-0.7c-2.1-0.5-4-1.4-5.8-2.8
		c-1.8-1.4-3.3-3.3-4.5-5.7c-1.2-2.4-1.8-5.5-1.8-9.4v-27.3h8.6v27.3c0,1.9,0.3,3.6,0.9,4.9c0.6,1.3,1.4,2.4,2.3,3.2
		c1,0.8,2.1,1.4,3.3,1.8c1.3,0.4,2.5,0.6,3.8,0.6c1,0,2.1-0.2,3.4-0.6c1.3-0.4,2.5-1,3.6-1.8s2.1-1.9,2.9-3.2
		c0.8-1.3,1.2-2.9,1.2-4.8v-27.4h9.1V594h-7.2L734.8,590z"/>
	<path class="st11" d="M780.3,557.9c-0.4-0.1-0.8-0.2-1.3-0.4c-0.5-0.1-1-0.2-1.6-0.2c-1.8,0-3.5,0.3-5.1,0.9
		c-1.6,0.6-2.9,1.4-4,2.4c-1.1,1-2,2.2-2.7,3.5c-0.7,1.3-1,2.8-1,4.3l-0.1,26.6h-9.1v-44.9h7.2l1.9,5c1.3-1.8,2.9-3.3,4.9-4.4
		c2-1.1,4.6-1.6,7.6-1.6c2,0,4.3,0.3,6.8,0.8l-2.3,8.5C781.2,558.2,780.8,558.1,780.3,557.9z"/>
	<path class="st11" d="M794.9,540.3c-1.6,0-3-0.6-4.1-1.7c-1.1-1.2-1.7-2.5-1.7-4.2c0-1.6,0.6-3,1.7-4.1c1.1-1.1,2.5-1.7,4.1-1.7
		c1.6,0,3,0.6,4.1,1.7s1.7,2.5,1.7,4.1c0,1.6-0.6,3-1.7,4.2C797.9,539.8,796.5,540.3,794.9,540.3z M799.6,595h-9.2v-44.9h9.1
		L799.6,595z"/>
	<path class="st11" d="M826.5,595.4c-2.5,0.2-4.8-0.2-6.8-1.1c-2-0.9-3.6-2.5-4.9-4.8c-1.3-2.3-1.9-5.5-1.9-9.6v-22.8h-6.6v-6.2
		l6.6-1.9v-12h9.1v12h12.2v8.1h-12.2v24.2c0,1.5,0.2,2.7,0.5,3.6c0.3,0.9,0.9,1.5,1.7,2c0.8,0.4,1.9,0.7,3.2,0.7s2.9-0.1,4.8-0.4
		l1.8,6.7C831.5,594.7,829,595.2,826.5,595.4z"/>
	<path class="st11" d="M856.5,589.9l-19-39.8h10.1l13.9,29.2l13.6-29.2h10l-29,62.8h-10L856.5,589.9z"/>
	<rect x="114.9" y="404.9" class="st18" width="770.2" height="190.3"/>
	<rect x="47.9" y="337.9" class="st18" width="904.2" height="324.3"/>
</g>
<g id="ThermoBlackBack" class="st0">
	<g id="colour_4_" class="st2">
		<rect x="0" y="290.7" width="1000" height="364.5"/>
		<path class="st19" d="M211,556.1h-90.4c-6.6,0-12-5.4-12-12v-90.4c0-6.6,5.4-12,12-12H211c6.6,0,12,5.4,12,12v90.4
			C223,550.7,217.6,556.1,211,556.1z"/>
		<path class="st20" d="M217.1,556.1h-2.3c-3.3,0-5.9-2.7-5.9-5.9V447.6c0-3.3,2.7-5.9,5.9-5.9h2.3c3.3,0,5.9,2.7,5.9,5.9v102.5
			C223,553.4,220.3,556.1,217.1,556.1z"/>
		<path class="st21" d="M211,556.1h-90.4c-6.6,0-12-5.4-12-12v-90.4c0-6.6,5.4-12,12-12H211c6.6,0,12,5.4,12,12v90.4
			C223,550.7,217.6,556.1,211,556.1z"/>
		<path class="st22" d="M119.8,441.7v-33.3c0-21.4,17.4-38.8,38.8-38.8H173c21.4,0,38.8,17.4,38.8,38.8v33.3h-8.6v-33.3
			c0-16.7-13.6-30.2-30.2-30.2h-14.5c-16.7,0-30.2,13.6-30.2,30.2v33.3H119.8z"/>
		<path class="st23" d="M169.3,522.7v-58.8c0-1.9-1.7-3.4-3.8-3.4h-3.8c-2.1,0-3.8,1.6-3.8,3.4v58.8l0,0c-4.7,2-7.9,6.3-7.9,11.3
			c0,6.9,6.1,12.4,13.6,12.4s13.6-5.6,13.6-12.4c0-5-3.2-9.3-7.8-11.2L169.3,522.7z"/>
		<line class="st24" x1="176.6" y1="505.2" x2="184.8" y2="505.2"/>
		<line class="st24" x1="176.6" y1="495.5" x2="184.8" y2="495.5"/>
		<line class="st24" x1="176.6" y1="485.9" x2="184.8" y2="485.9"/>
		<line class="st24" x1="176.6" y1="476.3" x2="184.8" y2="476.3"/>
		<line class="st24" x1="176.6" y1="466.6" x2="184.8" y2="466.6"/>
		<line class="st24" x1="176.6" y1="514.8" x2="184.8" y2="514.8"/>
		<text transform="matrix(1 0 0 1 238.1318 557.0803)"><tspan x="0" y="0" class="st25 st3 st26">Thermo</tspan><tspan x="312.6" y="0" class="st27 st3 st26">Security</tspan></text>
	</g>
	<g id="grey_4_">
		<rect y="290.7" class="st2" width="1000" height="364.5"/>
		<path class="st28" d="M211,556.1h-90.4c-6.6,0-12-5.4-12-12v-90.4c0-6.6,5.4-12,12-12H211c6.6,0,12,5.4,12,12v90.4
			C223,550.7,217.6,556.1,211,556.1z"/>
		<path class="st29" d="M217.1,556.1h-2.3c-3.3,0-5.9-2.7-5.9-5.9V447.6c0-3.3,2.7-5.9,5.9-5.9h2.3c3.3,0,5.9,2.7,5.9,5.9v102.5
			C223,553.4,220.3,556.1,217.1,556.1z"/>
		<path class="st30" d="M211,556.1h-90.4c-6.6,0-12-5.4-12-12v-90.4c0-6.6,5.4-12,12-12H211c6.6,0,12,5.4,12,12v90.4
			C223,550.7,217.6,556.1,211,556.1z"/>
		<path class="st31" d="M119.8,441.7v-33.3c0-21.4,17.4-38.8,38.8-38.8H173c21.4,0,38.8,17.4,38.8,38.8v33.3h-8.6v-33.3
			c0-16.7-13.6-30.2-30.2-30.2h-14.5c-16.7,0-30.2,13.6-30.2,30.2v33.3H119.8z"/>
		<path class="st32" d="M169.3,522.7v-58.8c0-1.9-1.7-3.4-3.8-3.4h-3.8c-2.1,0-3.8,1.6-3.8,3.4v58.8l0,0c-4.7,2-7.9,6.3-7.9,11.3
			c0,6.9,6.1,12.4,13.6,12.4s13.6-5.6,13.6-12.4c0-5-3.2-9.3-7.8-11.2L169.3,522.7z"/>
		<line class="st33" x1="176.6" y1="505.2" x2="184.8" y2="505.2"/>
		<line class="st33" x1="176.6" y1="495.5" x2="184.8" y2="495.5"/>
		<line class="st33" x1="176.6" y1="485.9" x2="184.8" y2="485.9"/>
		<line class="st33" x1="176.6" y1="476.3" x2="184.8" y2="476.3"/>
		<line class="st33" x1="176.6" y1="466.6" x2="184.8" y2="466.6"/>
		<line class="st33" x1="176.6" y1="514.8" x2="184.8" y2="514.8"/>
		<text transform="matrix(1 0 0 1 238.1328 557.0803)" class="st2"><tspan x="0" y="0" class="st34 st3 st35">Thermo</tspan><tspan x="312.6" y="0" class="st36 st3 st35">Security</tspan></text>
	</g>
</g>
<g id="HouseBlackBack" class="st0">
	<g id="colour_5_" class="st2">
		<rect y="257.1" width="1000" height="431.7"/>
		<path class="st37" d="M122.2,380.4h16.3c2.4,0,4.3,1.9,4.3,4.3v4.6c0,2.1,2.5,3.1,4,1.7l30.4-28.6c1.7-1.6,4.3-1.6,5.9,0
			l74.3,69.9c0.9,0.8,1.4,2,1.4,3.1v151.1c0,2.4-1.9,4.3-4.3,4.3H105.8c-2.4,0-4.3-1.9-4.3-4.3V435.5c0-1.2,0.5-2.3,1.4-3.1
			l13.7-12.9c0.9-0.8,1.4-2,1.4-3.1v-31.6C117.9,382.3,119.8,380.4,122.2,380.4z"/>
		<rect x="157.3" y="472.3" class="st38" width="45.7" height="58.4"/>
		<polyline class="st39" points="203,477.2 220.3,477.2 220.3,459 		"/>
		<polyline class="st39" points="203,491.6 230.7,491.6 230.7,475.5 241,475.5 		"/>
		<polyline class="st39" points="203,507.5 235.8,507.5 235.8,521.4 245.2,521.4 		"/>
		<polyline class="st39" points="203,526.1 213.8,526.1 213.8,542.8 231,542.8 231,554.4 		"/>
		<polyline class="st39" points="157.3,476.5 140.5,476.5 140.5,450.4 		"/>
		<polyline class="st39" points="157.3,490.5 130.3,490.5 130.3,482.9 113.9,482.9 		"/>
		<polyline class="st39" points="157.3,507.5 131.2,507.5 131.2,526.1 117.8,526.1 117.8,542.5 		"/>
		<polyline class="st39" points="157.3,527.8 153.7,527.8 153.7,550.4 141.2,550.4 141.2,562.6 		"/>
		<path d="M140.5,457.4L140.5,457.4c-3.1,0-5.7-2.6-5.7-5.7v0c0-3.1,2.6-5.7,5.7-5.7h0c3.1,0,5.7,2.6,5.7,5.7v0
			C146.2,454.8,143.6,457.4,140.5,457.4z"/>
		<path d="M116,488.6L116,488.6c-3.1,0-5.7-2.6-5.7-5.7v0c0-3.1,2.6-5.7,5.7-5.7h0c3.1,0,5.7,2.6,5.7,5.7v0
			C121.7,486,119.2,488.6,116,488.6z"/>
		<path d="M117.8,548.2L117.8,548.2c-3.1,0-5.7-2.6-5.7-5.7l0,0c0-3.1,2.6-5.7,5.7-5.7h0c3.1,0,5.7,2.6,5.7,5.7l0,0
			C123.5,545.7,120.9,548.2,117.8,548.2z"/>
		<path d="M141.2,568.3L141.2,568.3c-3.1,0-5.7-2.6-5.7-5.7l0,0c0-3.1,2.6-5.7,5.7-5.7h0c3.1,0,5.7,2.6,5.7,5.7l0,0
			C146.9,565.7,144.4,568.3,141.2,568.3z"/>
		<path d="M231,560.1L231,560.1c-3.1,0-5.7-2.6-5.7-5.7l0,0c0-3.1,2.6-5.7,5.7-5.7h0c3.1,0,5.7,2.6,5.7,5.7l0,0
			C236.7,557.6,234.1,560.1,231,560.1z"/>
		<path d="M246.1,527.1L246.1,527.1c-3.1,0-5.7-2.6-5.7-5.7v0c0-3.1,2.6-5.7,5.7-5.7h0c3.1,0,5.7,2.6,5.7,5.7v0
			C251.8,524.6,249.3,527.1,246.1,527.1z"/>
		<path d="M243.4,481.2L243.4,481.2c-3.1,0-5.7-2.6-5.7-5.7l0,0c0-3.1,2.6-5.7,5.7-5.7h0c3.1,0,5.7,2.6,5.7,5.7l0,0
			C249.1,478.7,246.5,481.2,243.4,481.2z"/>
		<path d="M220.3,462.3L220.3,462.3c-3.1,0-5.7-2.6-5.7-5.7v0c0-3.1,2.6-5.7,5.7-5.7l0,0c3.1,0,5.7,2.6,5.7,5.7v0
			C226,459.7,223.4,462.3,220.3,462.3z"/>
		<text transform="matrix(1 0 0 1 279.9355 590.9445)"><tspan x="0" y="0" class="st40 st3 st41">House</tspan><tspan x="362.4" y="0" class="st27 st3 st41">Com</tspan></text>
	</g>
	<g id="grey_5_">
		<rect y="256.4" class="st2" width="1000" height="431.7"/>
		<path class="st42" d="M122,379.7h16.3c2.4,0,4.3,1.9,4.3,4.3v4.6c0,2.1,2.5,3.1,4,1.7l30.4-28.6c1.7-1.6,4.3-1.6,5.9,0l74.4,70
			c0.9,0.8,1.4,2,1.4,3.1V586c0,2.4-1.9,4.3-4.3,4.3H105.6c-2.4,0-4.3-1.9-4.3-4.3V434.8c0-1.2,0.5-2.3,1.4-3.1l13.7-12.9
			c0.9-0.8,1.4-2,1.4-3.1V384C117.7,381.6,119.6,379.7,122,379.7z"/>
		<rect x="157.1" y="471.6" class="st43" width="45.7" height="58.4"/>
		<polyline class="st44" points="202.8,476.5 220.1,476.5 220.1,458.3 		"/>
		<polyline class="st44" points="202.8,491 230.6,491 230.6,474.8 240.8,474.8 		"/>
		<polyline class="st44" points="202.8,506.9 235.6,506.9 235.6,520.7 245.1,520.7 		"/>
		<polyline class="st44" points="202.8,525.4 213.6,525.4 213.6,542.1 230.9,542.1 230.9,553.8 		"/>
		<polyline class="st44" points="157.1,475.8 140.3,475.8 140.3,449.7 		"/>
		<polyline class="st44" points="157.1,489.8 130.1,489.8 130.1,482.2 113.7,482.2 		"/>
		<polyline class="st44" points="157.1,506.9 131,506.9 131,525.4 117.7,525.4 117.7,541.9 		"/>
		<polyline class="st44" points="157.1,527.1 153.6,527.1 153.6,549.8 141.1,549.8 141.1,561.9 		"/>
		<path class="st2" d="M140.3,456.7L140.3,456.7c-3.2,0-5.7-2.6-5.7-5.7v0c0-3.1,2.6-5.7,5.7-5.7h0c3.1,0,5.7,2.6,5.7,5.7v0
			C146,454.1,143.5,456.7,140.3,456.7z"/>
		<path class="st2" d="M115.9,487.9L115.9,487.9c-3.2,0-5.7-2.6-5.7-5.7v0c0-3.1,2.6-5.7,5.7-5.7h0c3.1,0,5.7,2.6,5.7,5.7v0
			C121.6,485.4,119,487.9,115.9,487.9z"/>
		<path class="st2" d="M117.7,547.5L117.7,547.5c-3.2,0-5.7-2.6-5.7-5.7v0c0-3.1,2.6-5.7,5.7-5.7h0c3.1,0,5.7,2.6,5.7,5.7v0
			C123.3,545,120.8,547.5,117.7,547.5z"/>
		<path class="st2" d="M141.1,567.6L141.1,567.6c-3.2,0-5.7-2.6-5.7-5.7v0c0-3.1,2.6-5.7,5.7-5.7h0c3.1,0,5.7,2.6,5.7,5.7v0
			C146.8,565.1,144.2,567.6,141.1,567.6z"/>
		<path class="st2" d="M230.9,559.5L230.9,559.5c-3.2,0-5.7-2.6-5.7-5.7v0c0-3.1,2.6-5.7,5.7-5.7h0c3.1,0,5.7,2.6,5.7,5.7v0
			C236.6,556.9,234,559.5,230.9,559.5z"/>
		<path class="st2" d="M246,526.4L246,526.4c-3.2,0-5.7-2.6-5.7-5.7v0c0-3.1,2.6-5.7,5.7-5.7h0c3.1,0,5.7,2.6,5.7,5.7v0
			C251.7,523.9,249.1,526.4,246,526.4z"/>
		<path class="st2" d="M243.3,480.5L243.3,480.5c-3.2,0-5.7-2.6-5.7-5.7v0c0-3.1,2.6-5.7,5.7-5.7h0c3.1,0,5.7,2.6,5.7,5.7v0
			C248.9,478,246.4,480.5,243.3,480.5z"/>
		<path class="st2" d="M220.1,461.6L220.1,461.6c-3.2,0-5.7-2.6-5.7-5.7v0c0-3.1,2.6-5.7,5.7-5.7h0c3.1,0,5.7,2.6,5.7,5.7v0
			C225.8,459,223.3,461.6,220.1,461.6z"/>
		<text transform="matrix(1 0 0 1 279.8027 590.2773)" class="st2"><tspan x="0" y="0" class="st40 st3 st45">House</tspan><tspan x="362.5" y="0" class="st36 st3 st45">Com</tspan></text>
	</g>
</g>
<g id="HouseCom" class="st0">
	<g id="colour_1_" class="st2">
		<path class="st46" d="M65.4,354.8h18.8c2.7,0,5,2.2,5,5v5.2c0,2.4,2.8,3.6,4.6,2l35-32.9c1.9-1.8,4.9-1.8,6.8,0l85.6,80.5
			c1,0.9,1.6,2.3,1.6,3.6v174c0,2.7-2.2,5-5,5H46.5c-2.7,0-5-2.2-5-5v-174c0-1.4,0.6-2.7,1.6-3.6l15.7-14.8c1-0.9,1.6-2.3,1.6-3.6
			v-36.4C60.4,357,62.7,354.8,65.4,354.8z"/>
		<rect x="105.8" y="460.6" class="st38" width="52.6" height="67.2"/>
		<polyline class="st39" points="158.4,466.2 178.3,466.2 178.3,445.3 		"/>
		<polyline class="st39" points="158.4,482.8 190.3,482.8 190.3,464.3 202.1,464.3 		"/>
		<polyline class="st39" points="158.4,501.1 196.2,501.1 196.2,517.1 207,517.1 		"/>
		<polyline class="st39" points="158.4,522.5 170.9,522.5 170.9,541.7 190.7,541.7 190.7,555.1 		"/>
		<polyline class="st39" points="105.8,465.4 86.5,465.4 86.5,435.3 		"/>
		<polyline class="st39" points="105.8,481.5 74.7,481.5 74.7,472.8 55.8,472.8 		"/>
		<polyline class="st39" points="105.8,501.1 75.8,501.1 75.8,522.5 60.4,522.5 60.4,541.4 		"/>
		<polyline class="st39" points="105.8,524.4 101.7,524.4 101.7,550.5 87.4,550.5 87.4,564.5 		"/>
		<path d="M86.5,443.4L86.5,443.4c-3.6,0-6.5-2.9-6.5-6.5l0,0c0-3.6,2.9-6.5,6.5-6.5h0c3.6,0,6.5,2.9,6.5,6.5l0,0
			C93,440.4,90.1,443.4,86.5,443.4z"/>
		<path d="M58.4,479.3L58.4,479.3c-3.6,0-6.5-2.9-6.5-6.5l0,0c0-3.6,2.9-6.5,6.5-6.5h0c3.6,0,6.5,2.9,6.5,6.5l0,0
			C64.9,476.4,62,479.3,58.4,479.3z"/>
		<path d="M60.4,548L60.4,548c-3.6,0-6.5-2.9-6.5-6.5l0,0c0-3.6,2.9-6.5,6.5-6.5h0c3.6,0,6.5,2.9,6.5,6.5l0,0
			C66.9,545,64,548,60.4,548z"/>
		<path d="M87.4,571.1L87.4,571.1c-3.6,0-6.5-2.9-6.5-6.5l0,0c0-3.6,2.9-6.5,6.5-6.5h0c3.6,0,6.5,2.9,6.5,6.5l0,0
			C93.9,568.1,91,571.1,87.4,571.1z"/>
		<path d="M190.7,561.7L190.7,561.7c-3.6,0-6.5-2.9-6.5-6.5v0c0-3.6,2.9-6.5,6.5-6.5h0c3.6,0,6.5,2.9,6.5,6.5v0
			C197.2,558.7,194.3,561.7,190.7,561.7z"/>
		<path d="M208.1,523.7L208.1,523.7c-3.6,0-6.5-2.9-6.5-6.5l0,0c0-3.6,2.9-6.5,6.5-6.5h0c3.6,0,6.5,2.9,6.5,6.5l0,0
			C214.6,520.7,211.7,523.7,208.1,523.7z"/>
		<path d="M204.9,470.8L204.9,470.8c-3.6,0-6.5-2.9-6.5-6.5v0c0-3.6,2.9-6.5,6.5-6.5h0c3.6,0,6.5,2.9,6.5,6.5v0
			C211.5,467.9,208.5,470.8,204.9,470.8z"/>
		<path d="M178.3,449L178.3,449c-3.6,0-6.5-2.9-6.5-6.5l0,0c0-3.6,2.9-6.5,6.5-6.5h0c3.6,0,6.5,2.9,6.5,6.5l0,0
			C184.9,446.1,181.9,449,178.3,449z"/>
		<text transform="matrix(1 0 0 1 247.0027 597.1415)"><tspan x="0" y="0" class="st3 st47">House</tspan><tspan x="417.2" y="0" class="st27 st3 st47">Com</tspan></text>
	</g>
	<g id="grey_1_">
		<path class="st48" d="M65.4,354.8h18.8c2.7,0,5,2.2,5,5v5.2c0,2.4,2.8,3.6,4.6,2l35-32.9c1.9-1.8,4.9-1.8,6.8,0l85.6,80.5
			c1,0.9,1.6,2.3,1.6,3.6v174c0,2.7-2.2,5-5,5H46.5c-2.7,0-5-2.2-5-5v-174c0-1.4,0.6-2.7,1.6-3.6l15.7-14.8c1-0.9,1.6-2.3,1.6-3.6
			v-36.4C60.4,357,62.7,354.8,65.4,354.8z"/>
		<rect x="105.8" y="460.6" class="st43" width="52.6" height="67.2"/>
		<polyline class="st44" points="158.4,466.2 178.3,466.2 178.3,445.3 		"/>
		<polyline class="st44" points="158.4,482.8 190.3,482.8 190.3,464.3 202.1,464.3 		"/>
		<polyline class="st44" points="158.4,501.1 196.2,501.1 196.2,517.1 207,517.1 		"/>
		<polyline class="st44" points="158.4,522.5 170.9,522.5 170.9,541.7 190.7,541.7 190.7,555.1 		"/>
		<polyline class="st44" points="105.8,465.4 86.5,465.4 86.5,435.3 		"/>
		<polyline class="st44" points="105.8,481.5 74.7,481.5 74.7,472.8 55.8,472.8 		"/>
		<polyline class="st44" points="105.8,501.1 75.8,501.1 75.8,522.5 60.4,522.5 60.4,541.4 		"/>
		<polyline class="st44" points="105.8,524.4 101.7,524.4 101.7,550.5 87.4,550.5 87.4,564.5 		"/>
		<path class="st2" d="M86.5,443.4L86.5,443.4c-3.6,0-6.5-2.9-6.5-6.5l0,0c0-3.6,2.9-6.5,6.5-6.5h0c3.6,0,6.5,2.9,6.5,6.5l0,0
			C93,440.4,90.1,443.4,86.5,443.4z"/>
		<path class="st2" d="M58.4,479.3L58.4,479.3c-3.6,0-6.5-2.9-6.5-6.5l0,0c0-3.6,2.9-6.5,6.5-6.5h0c3.6,0,6.5,2.9,6.5,6.5l0,0
			C64.9,476.4,62,479.3,58.4,479.3z"/>
		<path class="st2" d="M60.4,548L60.4,548c-3.6,0-6.5-2.9-6.5-6.5l0,0c0-3.6,2.9-6.5,6.5-6.5h0c3.6,0,6.5,2.9,6.5,6.5l0,0
			C66.9,545,64,548,60.4,548z"/>
		<path class="st2" d="M87.4,571.1L87.4,571.1c-3.6,0-6.5-2.9-6.5-6.5l0,0c0-3.6,2.9-6.5,6.5-6.5h0c3.6,0,6.5,2.9,6.5,6.5l0,0
			C93.9,568.1,91,571.1,87.4,571.1z"/>
		<path class="st2" d="M190.7,561.7L190.7,561.7c-3.6,0-6.5-2.9-6.5-6.5v0c0-3.6,2.9-6.5,6.5-6.5h0c3.6,0,6.5,2.9,6.5,6.5v0
			C197.2,558.7,194.3,561.7,190.7,561.7z"/>
		<path class="st2" d="M208.1,523.7L208.1,523.7c-3.6,0-6.5-2.9-6.5-6.5l0,0c0-3.6,2.9-6.5,6.5-6.5h0c3.6,0,6.5,2.9,6.5,6.5l0,0
			C214.6,520.7,211.7,523.7,208.1,523.7z"/>
		<path class="st2" d="M204.9,470.8L204.9,470.8c-3.6,0-6.5-2.9-6.5-6.5v0c0-3.6,2.9-6.5,6.5-6.5h0c3.6,0,6.5,2.9,6.5,6.5v0
			C211.5,467.9,208.5,470.8,204.9,470.8z"/>
		<path class="st2" d="M178.3,449L178.3,449c-3.6,0-6.5-2.9-6.5-6.5l0,0c0-3.6,2.9-6.5,6.5-6.5h0c3.6,0,6.5,2.9,6.5,6.5l0,0
			C184.9,446.1,181.9,449,178.3,449z"/>
		<text transform="matrix(1 0 0 1 247.0027 597.1415)" class="st2"><tspan x="0" y="0" class="st3 st47">House</tspan><tspan x="417.2" y="0" class="st36 st3 st47">Com</tspan></text>
	</g>
</g>
<g id="ThermoSecurity" class="st0">
	<g id="colour" class="st2">
		<path class="st19" d="M144.3,584.3H25.9c-6.6,0-12-5.4-12-12V453.9c0-6.6,5.4-12,12-12h118.4c6.6,0,12,5.4,12,12v118.4
			C156.3,578.9,150.9,584.3,144.3,584.3z"/>
		<path class="st20" d="M150.4,584.3h-5.7c-3.3,0-5.9-2.7-5.9-5.9V447.8c0-3.3,2.7-5.9,5.9-5.9h5.7c3.3,0,5.9,2.7,5.9,5.9v130.5
			C156.3,581.6,153.7,584.3,150.4,584.3z"/>
		<path class="st49" d="M144.3,584.3H25.9c-6.6,0-12-5.4-12-12V453.9c0-6.6,5.4-12,12-12h118.4c6.6,0,12,5.4,12,12v118.4
			C156.3,578.9,150.9,584.3,144.3,584.3z"/>
		<path class="st50" d="M27.8,441.9v-41.4c0-26.6,21.7-48.3,48.3-48.3h18c26.6,0,48.3,21.7,48.3,48.3v41.4h-10.7v-41.4
			c0-20.7-16.9-37.6-37.6-37.6h-18c-20.7,0-37.6,16.9-37.6,37.6v41.4H27.8z"/>
		<path class="st23" d="M89.5,542.7v-73.1c0-2.4-2.1-4.3-4.7-4.3H80c-2.6,0-4.7,1.9-4.7,4.3v73.1l0,0c-5.8,2.5-9.8,7.8-9.8,14
			c0,8.5,7.6,15.4,17,15.4s17-6.9,17-15.4c0-6.2-4-11.5-9.8-14L89.5,542.7z"/>
		<line class="st24" x1="98.6" y1="520.9" x2="108.8" y2="520.9"/>
		<line class="st24" x1="98.6" y1="508.9" x2="108.8" y2="508.9"/>
		<line class="st24" x1="98.6" y1="497" x2="108.8" y2="497"/>
		<line class="st24" x1="98.6" y1="485" x2="108.8" y2="485"/>
		<line class="st24" x1="98.6" y1="473" x2="108.8" y2="473"/>
		<line class="st24" x1="98.6" y1="532.9" x2="108.8" y2="532.9"/>
		<text transform="matrix(1 0 0 1 175.1542 585.5333)"><tspan x="0" y="0" class="st3 st51">Thermo</tspan><tspan x="389" y="0" class="st27 st3 st51">Security</tspan></text>
	</g>
	<g id="grey">
		<path class="st28" d="M144.3,584.3H25.9c-6.6,0-12-5.4-12-12V453.9c0-6.6,5.4-12,12-12h118.4c6.6,0,12,5.4,12,12v118.4
			C156.3,578.9,150.9,584.3,144.3,584.3z"/>
		<path class="st29" d="M150.4,584.3h-5.7c-3.3,0-5.9-2.7-5.9-5.9V447.8c0-3.3,2.7-5.9,5.9-5.9h5.7c3.3,0,5.9,2.7,5.9,5.9v130.5
			C156.3,581.6,153.7,584.3,150.4,584.3z"/>
		<path class="st7" d="M144.3,584.3H25.9c-6.6,0-12-5.4-12-12V453.9c0-6.6,5.4-12,12-12h118.4c6.6,0,12,5.4,12,12v118.4
			C156.3,578.9,150.9,584.3,144.3,584.3z"/>
		<path class="st52" d="M27.8,441.9v-41.4c0-26.6,21.7-48.3,48.3-48.3h18c26.6,0,48.3,21.7,48.3,48.3v41.4h-10.7v-41.4
			c0-20.7-16.9-37.6-37.6-37.6h-18c-20.7,0-37.6,16.9-37.6,37.6v41.4H27.8z"/>
		<path class="st32" d="M89.5,542.7v-73.1c0-2.4-2.1-4.3-4.7-4.3H80c-2.6,0-4.7,1.9-4.7,4.3v73.1l0,0c-5.8,2.5-9.8,7.8-9.8,14
			c0,8.5,7.6,15.4,17,15.4s17-6.9,17-15.4c0-6.2-4-11.5-9.8-14L89.5,542.7z"/>
		<line class="st33" x1="98.6" y1="520.9" x2="108.8" y2="520.9"/>
		<line class="st33" x1="98.6" y1="508.9" x2="108.8" y2="508.9"/>
		<line class="st33" x1="98.6" y1="497" x2="108.8" y2="497"/>
		<line class="st33" x1="98.6" y1="485" x2="108.8" y2="485"/>
		<line class="st33" x1="98.6" y1="473" x2="108.8" y2="473"/>
		<line class="st33" x1="98.6" y1="532.9" x2="108.8" y2="532.9"/>
		<text transform="matrix(1 0 0 1 175.1542 585.5333)" class="st2"><tspan x="0" y="0" class="st3 st51">Thermo</tspan><tspan x="389" y="0" class="st36 st3 st51">Security</tspan></text>
	</g>
</g>
<g id="ThermoSec_x5F_logo">
	<g id="colour_2_">
		<path class="st53" d="M721.7,873.7H278.3c-6.6,0-12-5.4-12-12V418.3c0-6.6,5.4-12,12-12h443.3c6.6,0,12,5.4,12,12v443.3
			C733.7,868.3,728.3,873.7,721.7,873.7z"/>
		<path class="st20" d="M721.7,873.7h-15c-6.6,0-12-5.4-12-12V418.3c0-6.6,5.4-12,12-12h15c6.6,0,12,5.4,12,12v443.3
			C733.7,868.3,728.3,873.7,721.7,873.7z"/>
		<path class="st54" d="M721.7,873.7H278.3c-6.6,0-12-5.4-12-12V418.3c0-6.6,5.4-12,12-12h443.3c6.6,0,12,5.4,12,12v443.3
			C733.7,868.3,728.3,873.7,721.7,873.7z"/>
		<path class="st55" d="M311.9,406.3v-136c0-87.4,71.1-158.5,158.5-158.5h59.2c87.4,0,158.5,71.1,158.5,158.5v136h-35v-136
			c0-68.1-55.4-123.5-123.5-123.5h-59.2c-68.1,0-123.5,55.4-123.5,123.5v136H311.9z"/>
		<path class="st38" d="M514.3,737.3v-240c0-7.7-7-14.1-15.5-14.1h-15.5c-8.5,0-15.5,6.3-15.5,14.1v240l-0.2,0.1
			c-19.1,8-32.3,25.6-32.3,46c0,28,24.9,50.7,55.7,50.7s55.7-22.7,55.7-50.7c0-20.3-13.1-37.8-32.1-45.9L514.3,737.3z"/>
		<line class="st56" x1="531.1" y1="672.3" x2="564.7" y2="672.3"/>
		<line class="st56" x1="531.1" y1="632.9" x2="564.7" y2="632.9"/>
		<line class="st56" x1="531.1" y1="593.6" x2="564.7" y2="593.6"/>
		<line class="st56" x1="531.1" y1="554.2" x2="564.7" y2="554.2"/>
		<line class="st56" x1="531.1" y1="514.9" x2="564.7" y2="514.9"/>
		<line class="st56" x1="531.1" y1="711.6" x2="564.7" y2="711.6"/>
	</g>
	<g id="grey_2_" class="st0">
		<path class="st57" d="M721.7,873.7H278.3c-6.6,0-12-5.4-12-12V418.3c0-6.6,5.4-12,12-12h443.3c6.6,0,12,5.4,12,12v443.3
			C733.7,868.3,728.3,873.7,721.7,873.7z"/>
		<path class="st29" d="M721.7,873.7h-15c-6.6,0-12-5.4-12-12V418.3c0-6.6,5.4-12,12-12h15c6.6,0,12,5.4,12,12v443.3
			C733.7,868.3,728.3,873.7,721.7,873.7z"/>
		<path class="st58" d="M721.7,873.7H278.3c-6.6,0-12-5.4-12-12V418.3c0-6.6,5.4-12,12-12h443.3c6.6,0,12,5.4,12,12v443.3
			C733.7,868.3,728.3,873.7,721.7,873.7z"/>
		<path class="st59" d="M311.9,406.3v-136c0-87.4,71.1-158.5,158.5-158.5h59.2c87.4,0,158.5,71.1,158.5,158.5v136h-35v-136
			c0-68.1-55.4-123.5-123.5-123.5h-59.2c-68.1,0-123.5,55.4-123.5,123.5v136H311.9z"/>
		<path class="st43" d="M514.3,737.3v-240c0-7.7-7-14.1-15.5-14.1h-15.5c-8.5,0-15.5,6.3-15.5,14.1v240l-0.2,0.1
			c-19.1,8-32.3,25.6-32.3,46c0,28,24.9,50.7,55.7,50.7s55.7-22.7,55.7-50.7c0-20.3-13.1-37.8-32.1-45.9L514.3,737.3z"/>
		<line class="st60" x1="531.1" y1="672.3" x2="564.7" y2="672.3"/>
		<line class="st60" x1="531.1" y1="632.9" x2="564.7" y2="632.9"/>
		<line class="st60" x1="531.1" y1="593.6" x2="564.7" y2="593.6"/>
		<line class="st60" x1="531.1" y1="554.2" x2="564.7" y2="554.2"/>
		<line class="st60" x1="531.1" y1="514.9" x2="564.7" y2="514.9"/>
		<line class="st60" x1="531.1" y1="711.6" x2="564.7" y2="711.6"/>
	</g>
</g>
<g id="HouseCom_x5F_logo">
	<g id="colour_3_" class="st0">
		<path class="st61" d="M305.4,178.7h54.7c8,0,14.5,6.5,14.5,14.5v15.3c0,6.9,8.3,10.5,13.3,5.8l102.1-96c5.6-5.3,14.3-5.3,19.9,0
			l249.6,234.8c2.9,2.7,4.6,6.6,4.6,10.6v507.5c0,8-6.5,14.5-14.5,14.5H250.4c-8,0-14.5-6.5-14.5-14.5V363.7c0-4,1.7-7.8,4.6-10.6
			l45.9-43.2c2.9-2.7,4.6-6.6,4.6-10.6V193.2C290.9,185.2,297.4,178.7,305.4,178.7z"/>
		<rect x="423.3" y="487.3" class="st62" width="153.5" height="196.1"/>
		<polyline class="st58" points="576.7,503.7 634.8,503.7 634.8,442.8 		"/>
		<polyline class="st58" points="576.7,552.3 669.9,552.3 669.9,498.1 704.2,498.1 		"/>
		<polyline class="st58" points="576.7,605.6 686.9,605.6 686.9,652.3 718.5,652.3 		"/>
		<polyline class="st58" points="576.7,667.8 613,667.8 613,724 670.9,724 670.9,763.1 		"/>
		<polyline class="st58" points="423.3,501.5 366.9,501.5 366.9,413.7 		"/>
		<polyline class="st58" points="423.3,548.5 332.7,548.5 332.7,523 277.5,523 		"/>
		<polyline class="st58" points="423.3,605.6 335.7,605.6 335.7,667.8 290.8,667.8 290.8,723.1 		"/>
		<polyline class="st63" points="423.3,673.6 411.3,673.6 411.3,749.7 369.4,749.7 369.4,790.5 		"/>
		<path class="st2" d="M366.9,437.1L366.9,437.1c-10.5,0-19.1-8.6-19.1-19.1v0c0-10.5,8.6-19.1,19.1-19.1h0
			c10.5,0,19.1,8.6,19.1,19.1v0C386,428.5,377.4,437.1,366.9,437.1z"/>
		<path class="st2" d="M284.8,542.1L284.8,542.1c-10.5,0-19.1-8.6-19.1-19.1l0,0c0-10.5,8.6-19.1,19.1-19.1h0
			c10.5,0,19.1,8.6,19.1,19.1l0,0C303.9,533.5,295.3,542.1,284.8,542.1z"/>
		<path class="st2" d="M290.8,742.2L290.8,742.2c-10.5,0-19.1-8.6-19.1-19.1v0c0-10.5,8.6-19.1,19.1-19.1h0
			c10.5,0,19.1,8.6,19.1,19.1v0C309.9,733.6,301.3,742.2,290.8,742.2z"/>
		<path class="st2" d="M369.4,809.6L369.4,809.6c-10.5,0-19.1-8.6-19.1-19.1l0,0c0-10.5,8.6-19.1,19.1-19.1h0
			c10.5,0,19.1,8.6,19.1,19.1l0,0C388.5,801,379.9,809.6,369.4,809.6z"/>
		<path class="st2" d="M670.9,782.2L670.9,782.2c-10.5,0-19.1-8.6-19.1-19.1v0c0-10.5,8.6-19.1,19.1-19.1h0
			c10.5,0,19.1,8.6,19.1,19.1v0C690,773.6,681.4,782.2,670.9,782.2z"/>
		<path class="st2" d="M721.6,671.4L721.6,671.4c-10.5,0-19.1-8.6-19.1-19.1l0,0c0-10.5,8.6-19.1,19.1-19.1h0
			c10.5,0,19.1,8.6,19.1,19.1l0,0C740.7,662.8,732.1,671.4,721.6,671.4z"/>
		<path class="st2" d="M712.4,517.2L712.4,517.2c-10.5,0-19.1-8.6-19.1-19.1v0c0-10.5,8.6-19.1,19.1-19.1h0
			c10.5,0,19.1,8.6,19.1,19.1v0C731.5,508.6,722.9,517.2,712.4,517.2z"/>
		<path class="st2" d="M634.8,453.6L634.8,453.6c-10.5,0-19.1-8.6-19.1-19.1v0c0-10.5,8.6-19.1,19.1-19.1l0,0
			c10.5,0,19.1,8.6,19.1,19.1v0C653.9,445,645.3,453.6,634.8,453.6z"/>
	</g>
	<g id="grey_3_" class="st0">
		<path class="st64" d="M305.4,178.7h54.7c8,0,14.5,6.5,14.5,14.5v15.3c0,6.9,8.3,10.5,13.3,5.8l102.1-96c5.6-5.3,14.3-5.3,19.9,0
			l249.6,234.8c2.9,2.7,4.6,6.6,4.6,10.6v507.5c0,8-6.5,14.5-14.5,14.5H250.4c-8,0-14.5-6.5-14.5-14.5V363.7c0-4,1.7-7.8,4.6-10.6
			l45.9-43.2c2.9-2.7,4.6-6.6,4.6-10.6V193.2C290.9,185.2,297.4,178.7,305.4,178.7z"/>
		<rect x="423.3" y="487.3" class="st43" width="153.5" height="196.1"/>
		<polyline class="st57" points="576.7,503.7 634.8,503.7 634.8,442.8 		"/>
		<polyline class="st57" points="576.7,552.3 669.9,552.3 669.9,498.1 704.2,498.1 		"/>
		<polyline class="st57" points="576.7,605.6 686.9,605.6 686.9,652.3 718.5,652.3 		"/>
		<polyline class="st57" points="576.7,667.8 613,667.8 613,724 670.9,724 670.9,763.1 		"/>
		<polyline class="st57" points="423.3,501.5 366.9,501.5 366.9,413.7 		"/>
		<polyline class="st57" points="423.3,548.5 332.7,548.5 332.7,523 277.5,523 		"/>
		<polyline class="st57" points="423.3,605.6 335.7,605.6 335.7,667.8 290.8,667.8 290.8,723.1 		"/>
		<polyline class="st57" points="423.3,673.6 411.3,673.6 411.3,749.7 369.4,749.7 369.4,790.5 		"/>
		<path class="st2" d="M366.9,437.1L366.9,437.1c-10.5,0-19.1-8.6-19.1-19.1v0c0-10.5,8.6-19.1,19.1-19.1h0
			c10.5,0,19.1,8.6,19.1,19.1v0C386,428.5,377.4,437.1,366.9,437.1z"/>
		<path class="st2" d="M284.8,542.1L284.8,542.1c-10.5,0-19.1-8.6-19.1-19.1l0,0c0-10.5,8.6-19.1,19.1-19.1h0
			c10.5,0,19.1,8.6,19.1,19.1l0,0C303.9,533.5,295.3,542.1,284.8,542.1z"/>
		<path class="st2" d="M290.8,742.2L290.8,742.2c-10.5,0-19.1-8.6-19.1-19.1v0c0-10.5,8.6-19.1,19.1-19.1h0
			c10.5,0,19.1,8.6,19.1,19.1v0C309.9,733.6,301.3,742.2,290.8,742.2z"/>
		<path class="st2" d="M369.4,809.6L369.4,809.6c-10.5,0-19.1-8.6-19.1-19.1l0,0c0-10.5,8.6-19.1,19.1-19.1h0
			c10.5,0,19.1,8.6,19.1,19.1l0,0C388.5,801,379.9,809.6,369.4,809.6z"/>
		<path class="st2" d="M670.9,782.2L670.9,782.2c-10.5,0-19.1-8.6-19.1-19.1v0c0-10.5,8.6-19.1,19.1-19.1h0
			c10.5,0,19.1,8.6,19.1,19.1v0C690,773.6,681.4,782.2,670.9,782.2z"/>
		<path class="st2" d="M721.6,671.4L721.6,671.4c-10.5,0-19.1-8.6-19.1-19.1l0,0c0-10.5,8.6-19.1,19.1-19.1h0
			c10.5,0,19.1,8.6,19.1,19.1l0,0C740.7,662.8,732.1,671.4,721.6,671.4z"/>
		<path class="st2" d="M712.4,517.2L712.4,517.2c-10.5,0-19.1-8.6-19.1-19.1v0c0-10.5,8.6-19.1,19.1-19.1h0
			c10.5,0,19.1,8.6,19.1,19.1v0C731.5,508.6,722.9,517.2,712.4,517.2z"/>
		<path class="st2" d="M634.8,453.6L634.8,453.6c-10.5,0-19.1-8.6-19.1-19.1v0c0-10.5,8.6-19.1,19.1-19.1l0,0
			c10.5,0,19.1,8.6,19.1,19.1v0C653.9,445,645.3,453.6,634.8,453.6z"/>
	</g>
</g>
<g id="BrandBlue" class="st0">
	<rect x="11.7" y="308.7" class="st65" width="320.2" height="320.2"/>
	<rect x="343.2" y="312.2" class="st1" width="1480.5" height="565.3"/>
	<text transform="matrix(1 0 0 1 343.1705 352.3415)" class="st2"><tspan x="0" y="0" class="st3 st66">PANTONE: 2390 XGC</tspan><tspan x="0" y="132" class="st3 st66">RGB: 21, 127, 173</tspan><tspan x="0" y="198" class="st3 st66">HEX: #157FAD</tspan><tspan x="0" y="264" class="st3 st66">CMYK: 84, 41, 16, 0</tspan></text>
</g>
<g id="BrandRed" class="st0">
	<rect x="33.7" y="308.7" class="st67" width="320.2" height="320.2"/>
	<rect x="365.2" y="312.2" class="st1" width="627.7" height="317.1"/>
	<text transform="matrix(1 0 0 1 365.1705 352.3415)" class="st2"><tspan x="0" y="0" class="st3 st66">PANTONE: 187 C</tspan><tspan x="0" y="132" class="st3 st66">RGB: 166, 25, 46</tspan><tspan x="0" y="198" class="st3 st66">HEX: #A6192E</tspan><tspan x="0" y="264" class="st3 st66">CMYK: 0, 100, 74, 26</tspan></text>
</g>
</svg>
